<?xml version="1.0" encoding="UTF-8"?>
<!DOCTYPE svg PUBLIC "-//W3C//DTD SVG 1.1//EN" "http://www.w3.org/Graphics/SVG/1.1/DTD/svg11.dtd">
<!-- Creator: CorelDRAW 2018 (64-Bit) -->
<svg xmlns="http://www.w3.org/2000/svg" xml:space="preserve" width="148px" height="200px" version="1.1" style="shape-rendering:geometricPrecision; text-rendering:geometricPrecision; image-rendering:optimizeQuality; fill-rule:evenodd; clip-rule:evenodd"
viewBox="0 0 148 199.63"
 xmlns:xlink="http://www.w3.org/1999/xlink">
 <defs>
  <style type="text/css">
   <![CDATA[
    .fil1 {fill:#FEFEFE}
    .fil0 {fill:#FEFEFE;fill-rule:nonzero}
   ]]>
  </style>
 </defs>
 <g id="Слой_x0020_1">
  <metadata id="CorelCorpID_0Corel-Layer"/>
  <g id="_1769527042080">
   <g>
    <path class="fil0" d="M6.36 107.35l0.22 2.53c0.02,0.25 0.03,0.49 0.03,0.72 0,0.22 -0.04,0.46 -0.11,0.7 -0.07,0.25 -0.2,0.46 -0.4,0.64 -0.19,0.18 -0.47,0.28 -0.82,0.32 -0.23,0.02 -0.44,-0.01 -0.65,-0.09 -0.21,-0.08 -0.38,-0.2 -0.53,-0.37 -0.14,-0.17 -0.23,-0.37 -0.28,-0.6l-0.05 0c0.01,0.29 -0.05,0.56 -0.16,0.79 -0.11,0.23 -0.27,0.41 -0.47,0.55 -0.2,0.13 -0.42,0.21 -0.68,0.24 -0.28,0.02 -0.55,-0.03 -0.82,-0.16 -0.27,-0.13 -0.49,-0.34 -0.68,-0.65 -0.19,-0.32 -0.31,-0.71 -0.35,-1.2l-0.25 -2.9 0.11 -0.01 0.01 0.15c0.03,0.3 0.1,0.49 0.23,0.57 0.12,0.09 0.27,0.12 0.44,0.11l4.57 -0.4c0.17,-0.02 0.31,-0.08 0.42,-0.18 0.1,-0.11 0.15,-0.31 0.12,-0.61l-0.01 -0.14 0.11 -0.01zm-2.89 2.11l-2.51 0.22c-0.05,0.24 -0.06,0.48 -0.04,0.74 0.02,0.27 0.1,0.52 0.22,0.73 0.13,0.21 0.29,0.37 0.5,0.48 0.21,0.11 0.45,0.15 0.71,0.13 0.28,-0.02 0.51,-0.12 0.7,-0.28 0.19,-0.17 0.33,-0.38 0.41,-0.65 0.08,-0.27 0.11,-0.56 0.08,-0.88 -0.02,-0.18 -0.04,-0.35 -0.07,-0.49zm2.69 -0.24l-2.33 0.21c0,0.29 0,0.48 0,0.56 0.03,0.33 0.12,0.59 0.26,0.79 0.15,0.21 0.32,0.34 0.52,0.42 0.21,0.07 0.42,0.1 0.65,0.08 0.23,-0.02 0.42,-0.1 0.57,-0.25 0.16,-0.14 0.27,-0.33 0.34,-0.57 0.07,-0.24 0.09,-0.5 0.07,-0.79 -0.02,-0.14 -0.04,-0.29 -0.08,-0.45zm1.24 8.13l-1.23 0.23 -0.03 -0.12c0.34,-0.13 0.56,-0.28 0.65,-0.46 0.08,-0.18 0.11,-0.41 0.07,-0.71l-0.2 -1.66 -2.24 0.27 0.19 1.55c0.02,0.13 0.05,0.24 0.09,0.33 0.05,0.09 0.14,0.16 0.28,0.21 0.14,0.05 0.34,0.06 0.6,0.03l0.01 0.12 -2.08 0.25 -0.02 -0.11c0.23,-0.04 0.41,-0.09 0.52,-0.17 0.12,-0.08 0.19,-0.17 0.22,-0.27 0.03,-0.1 0.03,-0.21 0.02,-0.34l-0.19 -1.55 -2.57 0.31 0.2 1.67c0.05,0.43 0.17,0.75 0.37,0.97 0.19,0.22 0.5,0.38 0.94,0.47l-0.01 0.11 -1.55 -0.25 -0.58 -4.75 0.11 -0.02 0.02 0.15c0.06,0.48 0.29,0.7 0.69,0.65l4.55 -0.56c0.16,-0.02 0.29,-0.08 0.4,-0.18 0.11,-0.1 0.15,-0.3 0.11,-0.62l-0.01 -0.14 0.11 -0.02 0.56 4.61zm-5.09 3.33l0.26 1.63c0.12,0.78 0.6,1.26 1.45,1.44l-0.02 0.11 -1.64 -0.24 -0.74 -4.7 0.11 -0.02 0.02 0.14c0.08,0.49 0.32,0.7 0.72,0.63l4.52 -0.71c0.16,-0.03 0.29,-0.09 0.4,-0.2 0.11,-0.1 0.14,-0.31 0.09,-0.62l-0.02 -0.15 0.11 -0.02 0.43 2.7 -0.11 0.02 -0.03 -0.15c-0.03,-0.22 -0.09,-0.37 -0.18,-0.47 -0.09,-0.09 -0.17,-0.15 -0.26,-0.16 -0.09,-0.01 -0.18,-0.01 -0.27,0l-4.84 0.77zm0.16 2.87l0.11 -0.02c0.06,0.16 0.16,0.28 0.31,0.38 0.15,0.09 0.36,0.17 0.65,0.23l5.52 1.29 0.02 0.09 -4.64 3.27c-0.19,0.13 -0.33,0.24 -0.42,0.33 -0.09,0.08 -0.15,0.18 -0.18,0.28 -0.04,0.1 -0.05,0.25 -0.03,0.43l-0.11 0.02 -0.47 -2.4 0.11 -0.02c0.15,0.39 0.31,0.57 0.48,0.53 0.13,-0.02 0.24,-0.07 0.32,-0.13l1.04 -0.72 -0.44 -2.25 -1.22 -0.28c-0.02,0 -0.05,-0.01 -0.1,-0.02 -0.06,-0.01 -0.1,-0.02 -0.13,-0.02 -0.04,0 -0.07,0 -0.12,0.01 -0.13,0.03 -0.21,0.11 -0.24,0.24 -0.04,0.14 -0.04,0.29 -0.01,0.45l-0.11 0.02 -0.34 -1.71zm5.06 1.94l-2.4 -0.55 0.38 1.96 2.02 -1.41zm2.13 3.07l0.72 2.68c0.14,0.53 0.17,1.02 0.1,1.47 -0.07,0.45 -0.42,0.76 -1.04,0.92 -0.29,0.08 -0.55,0.08 -0.8,0 -0.25,-0.07 -0.47,-0.2 -0.65,-0.38 -0.18,-0.17 -0.33,-0.38 -0.44,-0.62l-1.62 2.16c-0.18,0.25 -0.31,0.46 -0.37,0.64 -0.07,0.17 -0.07,0.37 -0.02,0.61l-0.11 0.03 -0.43 -1.61 2.2 -2.77 -0.13 -0.51 -2.05 0.55c-0.4,0.1 -0.53,0.39 -0.4,0.86l0.04 0.14 -0.11 0.03 -0.71 -2.64 0.11 -0.03 0.03 0.14c0.08,0.28 0.18,0.46 0.32,0.53 0.13,0.07 0.29,0.08 0.47,0.03l4.43 -1.19c0.16,-0.04 0.29,-0.13 0.37,-0.25 0.09,-0.13 0.09,-0.34 0.02,-0.62l-0.04 -0.14 0.11 -0.03zm0.11 1.89l-2.37 0.64c0.02,0.08 0.05,0.2 0.09,0.36 0.1,0.36 0.24,0.64 0.42,0.84 0.18,0.21 0.38,0.33 0.6,0.39 0.21,0.06 0.43,0.05 0.65,-0.01 0.21,-0.05 0.39,-0.15 0.55,-0.29 0.16,-0.15 0.27,-0.33 0.33,-0.56 0.07,-0.23 0.06,-0.49 -0.02,-0.79 -0.06,-0.21 -0.14,-0.4 -0.25,-0.58zm1.32 3.59l0.85 2.61 -0.11 0.03 -0.05 -0.14c-0.07,-0.23 -0.17,-0.38 -0.3,-0.47 -0.12,-0.09 -0.29,-0.1 -0.5,-0.04l-3.02 0.99c-0.27,0.08 -0.51,0.2 -0.74,0.34 -0.22,0.14 -0.39,0.37 -0.51,0.68 -0.11,0.31 -0.09,0.71 0.07,1.21 0.13,0.38 0.3,0.67 0.52,0.86 0.21,0.19 0.44,0.31 0.68,0.35 0.24,0.04 0.45,0.04 0.64,0.01 0.18,-0.03 0.35,-0.07 0.51,-0.12l2.94 -0.96c0.15,-0.05 0.27,-0.13 0.36,-0.25 0.09,-0.12 0.09,-0.33 -0.01,-0.63l-0.04 -0.14 0.11 -0.04 0.66 2.06 -0.1 0.03 -0.05 -0.14c-0.1,-0.3 -0.21,-0.47 -0.35,-0.52 -0.14,-0.04 -0.29,-0.04 -0.46,0.02l-3.09 1c-0.46,0.15 -0.87,0.18 -1.24,0.08 -0.37,-0.09 -0.68,-0.28 -0.93,-0.56 -0.24,-0.28 -0.43,-0.62 -0.56,-1.02 -0.12,-0.37 -0.19,-0.76 -0.21,-1.17 -0.01,-0.41 0.09,-0.8 0.32,-1.18 0.22,-0.37 0.62,-0.66 1.19,-0.84l3.01 -0.98c0.39,-0.12 0.5,-0.42 0.35,-0.88l-0.05 -0.15 0.11 -0.04zm3.51 9.87l-1.82 0.66 -0.04 -0.11c0.26,-0.1 0.48,-0.26 0.66,-0.48 0.19,-0.22 0.3,-0.47 0.36,-0.74 0.05,-0.27 0.03,-0.53 -0.06,-0.79 -0.06,-0.18 -0.16,-0.32 -0.28,-0.44 -0.12,-0.11 -0.26,-0.19 -0.41,-0.22 -0.15,-0.04 -0.29,-0.03 -0.42,0.02 -0.16,0.06 -0.29,0.15 -0.39,0.29 -0.1,0.14 -0.18,0.3 -0.24,0.49 -0.06,0.18 -0.11,0.38 -0.15,0.61 -0.04,0.23 -0.08,0.45 -0.11,0.64 -0.07,0.37 -0.15,0.69 -0.26,0.95 -0.11,0.26 -0.25,0.48 -0.43,0.66 -0.18,0.18 -0.4,0.32 -0.67,0.41 -0.31,0.12 -0.6,0.12 -0.88,0.02 -0.28,-0.1 -0.52,-0.27 -0.73,-0.51 -0.21,-0.24 -0.37,-0.51 -0.48,-0.81 -0.06,-0.18 -0.1,-0.33 -0.11,-0.46 -0.01,-0.12 -0.02,-0.28 -0.02,-0.47 0,-0.19 -0.02,-0.33 -0.04,-0.43l-0.05 -0.13c-0.08,-0.14 -0.21,-0.2 -0.38,-0.17l-0.04 -0.11 1.92 -0.69 0.04 0.11c-0.41,0.22 -0.72,0.53 -0.93,0.9 -0.2,0.38 -0.23,0.78 -0.08,1.21 0.12,0.31 0.29,0.55 0.51,0.7 0.23,0.16 0.47,0.19 0.74,0.09 0.23,-0.08 0.4,-0.22 0.54,-0.4 0.13,-0.19 0.23,-0.4 0.29,-0.62 0.06,-0.22 0.11,-0.51 0.17,-0.85 0.06,-0.36 0.12,-0.67 0.2,-0.92 0.07,-0.25 0.19,-0.48 0.35,-0.68 0.15,-0.21 0.36,-0.36 0.63,-0.45 0.28,-0.11 0.56,-0.12 0.83,-0.05 0.27,0.07 0.52,0.21 0.73,0.42 0.21,0.21 0.37,0.47 0.48,0.77 0.07,0.19 0.11,0.36 0.12,0.5 0.02,0.15 0.02,0.3 0.02,0.46 0,0.17 0.01,0.28 0.03,0.35 0.03,0.06 0.07,0.11 0.15,0.14 0.07,0.04 0.14,0.05 0.22,0.04l0.03 0.09zm0.2 0.67l1.03 2.54 -0.11 0.04 -0.05 -0.14c-0.11,-0.26 -0.24,-0.42 -0.38,-0.48 -0.14,-0.05 -0.3,-0.04 -0.47,0.03l-4.24 1.71c-0.17,0.07 -0.29,0.17 -0.36,0.31 -0.06,0.14 -0.04,0.34 0.07,0.61l0.05 0.13 -0.1 0.05 -1.03 -2.54 0.11 -0.05 0.05 0.14c0.19,0.45 0.47,0.6 0.84,0.45l4.25 -1.71c0.15,-0.06 0.26,-0.16 0.34,-0.28 0.09,-0.13 0.07,-0.34 -0.05,-0.63l-0.05 -0.14 0.1 -0.04zm-4.56 4.65l0.1 -0.05c0.09,0.15 0.22,0.25 0.38,0.31 0.17,0.05 0.4,0.08 0.7,0.08l5.67 0.01 0.03 0.08 -3.78 4.23c-0.16,0.18 -0.27,0.32 -0.34,0.42 -0.07,0.1 -0.1,0.21 -0.11,0.32 -0.01,0.1 0.01,0.24 0.06,0.42l-0.1 0.04 -0.99 -2.23 0.1 -0.05c0.23,0.35 0.42,0.49 0.59,0.42 0.12,-0.06 0.21,-0.12 0.28,-0.2l0.85 -0.94 -0.94 -2.09 -1.25 0c-0.01,0 -0.05,0.01 -0.1,0.01 -0.06,0 -0.1,0 -0.13,0 -0.04,0.01 -0.07,0.02 -0.11,0.04 -0.12,0.05 -0.18,0.15 -0.19,0.29 0,0.14 0.03,0.29 0.09,0.44l-0.1 0.04 -0.71 -1.59zm5.36 0.75l-2.46 0.01 0.81 1.83 1.65 -1.84zm3.51 3.94l-2.2 5.38 3.28 -1.67c0.36,-0.19 0.43,-0.5 0.21,-0.93l-0.07 -0.14 0.1 -0.05 0.98 1.92 -0.1 0.06 -0.07 -0.15c-0.22,-0.43 -0.51,-0.55 -0.87,-0.37l-4.8 2.45 -0.06 -0.11 2.44 -6.05 -3.66 1.87c-0.2,0.1 -0.31,0.22 -0.34,0.38 -0.03,0.15 0.02,0.34 0.13,0.55l0.06 0.13 -0.1 0.05 -0.98 -1.92 0.1 -0.05 0.07 0.14c0.23,0.43 0.52,0.56 0.88,0.37l4.08 -2.07c0.1,-0.24 0.16,-0.47 0.16,-0.69 0.01,-0.21 -0.04,-0.42 -0.15,-0.64l0.1 -0.05 0.81 1.59zm8.01 13.06l-1.53 1.16 -0.08 -0.09c0.19,-0.19 0.34,-0.43 0.46,-0.7 0.12,-0.27 0.16,-0.57 0.14,-0.9 -0.02,-0.33 -0.14,-0.66 -0.37,-0.99 -0.24,-0.36 -0.54,-0.62 -0.91,-0.79 -0.36,-0.16 -0.77,-0.21 -1.21,-0.15 -0.45,0.07 -0.91,0.26 -1.38,0.58 -0.47,0.31 -0.81,0.67 -1.04,1.07 -0.22,0.39 -0.32,0.8 -0.29,1.21 0.03,0.42 0.17,0.82 0.43,1.2 0.43,0.64 1.11,1 2.05,1.1l-0.04 0.26c-0.63,-0.03 -1.15,-0.16 -1.55,-0.4 -0.4,-0.24 -0.73,-0.55 -0.98,-0.92 -0.33,-0.48 -0.51,-1 -0.56,-1.56 -0.05,-0.55 0.05,-1.08 0.29,-1.58 0.23,-0.51 0.6,-0.92 1.08,-1.25 0.37,-0.25 0.75,-0.41 1.15,-0.48 0.41,-0.08 0.81,-0.07 1.2,0.03 0.4,0.09 0.77,0.26 1.11,0.5 0.35,0.25 0.64,0.56 0.89,0.93 0.18,0.26 0.29,0.47 0.35,0.64 0.06,0.17 0.11,0.35 0.16,0.55 0.04,0.2 0.09,0.35 0.15,0.44 0.1,0.14 0.24,0.16 0.43,0.06l0.05 0.08zm-0.88 3.26l1.76 2.18 1.53 -1.24c0.13,-0.1 0.21,-0.22 0.25,-0.36 0.04,-0.15 -0.04,-0.34 -0.24,-0.59l-0.09 -0.11 0.09 -0.08 1.72 2.13 -0.09 0.07 -0.09 -0.12c-0.14,-0.17 -0.27,-0.28 -0.4,-0.32 -0.12,-0.03 -0.22,-0.04 -0.3,0 -0.09,0.03 -0.16,0.08 -0.24,0.14l-3.56 2.88c-0.31,0.26 -0.32,0.57 -0.01,0.95l0.09 0.12 -0.08 0.07 -1.72 -2.12 0.09 -0.07 0.09 0.11c0.3,0.38 0.62,0.44 0.93,0.18l1.71 -1.38 -1.76 -2.18 -1.71 1.38c-0.14,0.11 -0.22,0.24 -0.26,0.38 -0.04,0.14 0.05,0.33 0.24,0.58l0.1 0.11 -0.09 0.08 -1.72 -2.13 0.09 -0.07 0.09 0.11c0.31,0.38 0.62,0.45 0.94,0.19l3.56 -2.88c0.12,-0.1 0.2,-0.22 0.24,-0.37 0.05,-0.14 -0.03,-0.34 -0.23,-0.59l-0.09 -0.11 0.08 -0.07 1.72 2.12 -0.09 0.07 -0.09 -0.11c-0.2,-0.25 -0.37,-0.37 -0.52,-0.36 -0.14,0.01 -0.28,0.06 -0.41,0.17l-1.53 1.24zm0.64 5.91l0.09 -0.08c0.12,0.11 0.27,0.17 0.45,0.17 0.18,0 0.4,-0.04 0.68,-0.13l5.4 -1.74 0.06 0.06 -2.29 5.19c-0.1,0.22 -0.16,0.39 -0.19,0.5 -0.04,0.12 -0.04,0.23 -0.02,0.34 0.03,0.11 0.09,0.23 0.2,0.38l-0.09 0.08 -1.63 -1.82 0.08 -0.08c0.33,0.27 0.56,0.34 0.69,0.22 0.1,-0.09 0.17,-0.18 0.21,-0.28l0.52 -1.15 -1.54 -1.71 -1.19 0.4c-0.01,0 -0.05,0.01 -0.1,0.03 -0.05,0.02 -0.09,0.03 -0.12,0.05 -0.03,0.02 -0.06,0.04 -0.09,0.07 -0.1,0.08 -0.13,0.2 -0.09,0.33 0.04,0.14 0.11,0.27 0.22,0.39l-0.08 0.07 -1.17 -1.29zm5.33 -0.94l-2.33 0.76 1.33 1.49 1 -2.25zm4.6 2.56l-1.49 4.74 4.55 -1.98 1.37 1.23 -0.07 0.09 -0.11 -0.1c-0.18,-0.16 -0.35,-0.25 -0.5,-0.26 -0.16,-0.02 -0.31,0.06 -0.46,0.22l-3.06 3.4c-0.15,0.17 -0.21,0.33 -0.18,0.48 0.03,0.15 0.14,0.31 0.31,0.47l0.12 0.1 -0.08 0.08 -2.04 -1.83 0.08 -0.08 0.12 0.1c0.36,0.33 0.67,0.34 0.95,0.03l2.91 -3.23 -5.12 2.23 -0.05 -0.05 1.7 -5.32 -2.92 3.24c-0.27,0.31 -0.23,0.62 0.13,0.95l0.12 0.1 -0.08 0.09 -1.61 -1.46 0.08 -0.08 0.11 0.1c0.36,0.32 0.68,0.34 0.95,0.03l3.06 -3.4c0.11,-0.12 0.17,-0.25 0.19,-0.4 0.02,-0.15 -0.09,-0.33 -0.32,-0.54l-0.11 -0.1 0.07 -0.09 1.38 1.24zm4.32 3.78l2.06 1.49c0.2,0.15 0.39,0.3 0.56,0.45 0.17,0.15 0.32,0.33 0.46,0.55 0.14,0.21 0.21,0.45 0.22,0.72 0,0.26 -0.1,0.54 -0.3,0.82 -0.14,0.19 -0.3,0.33 -0.5,0.43 -0.19,0.11 -0.4,0.16 -0.62,0.16 -0.22,0 -0.43,-0.06 -0.64,-0.18l-0.03 0.04c0.22,0.19 0.39,0.4 0.49,0.64 0.1,0.24 0.13,0.47 0.11,0.71 -0.03,0.24 -0.12,0.46 -0.27,0.67 -0.16,0.23 -0.38,0.4 -0.65,0.52 -0.27,0.12 -0.59,0.15 -0.95,0.08 -0.36,-0.06 -0.73,-0.23 -1.13,-0.52l-2.35 -1.71 0.06 -0.09 0.12 0.09c0.25,0.17 0.44,0.24 0.59,0.2 0.14,-0.04 0.26,-0.13 0.37,-0.27l2.69 -3.7c0.1,-0.14 0.15,-0.29 0.14,-0.44 -0.01,-0.15 -0.13,-0.31 -0.38,-0.49l-0.12 -0.08 0.07 -0.09zm-0.3 3.56l-1.48 2.04c0.15,0.19 0.32,0.37 0.53,0.51 0.22,0.17 0.46,0.27 0.7,0.32 0.24,0.04 0.47,0.02 0.69,-0.06 0.22,-0.09 0.41,-0.24 0.56,-0.45 0.17,-0.23 0.25,-0.47 0.25,-0.72 0,-0.25 -0.08,-0.49 -0.22,-0.73 -0.15,-0.23 -0.36,-0.45 -0.62,-0.64 -0.15,-0.1 -0.28,-0.19 -0.41,-0.27zm1.58 -2.18l-1.37 1.89c0.22,0.2 0.37,0.32 0.43,0.36 0.27,0.2 0.52,0.31 0.77,0.33 0.24,0.03 0.46,-0.01 0.65,-0.12 0.19,-0.1 0.36,-0.25 0.49,-0.43 0.13,-0.18 0.2,-0.38 0.19,-0.6 -0.01,-0.21 -0.08,-0.42 -0.22,-0.63 -0.13,-0.21 -0.31,-0.4 -0.55,-0.57 -0.11,-0.08 -0.24,-0.15 -0.39,-0.23zm6.85 4.07l-0.61 1.1 -0.11 -0.05c0.12,-0.35 0.13,-0.62 0.05,-0.8 -0.08,-0.17 -0.25,-0.34 -0.5,-0.5l-1.42 -0.89 -1.2 1.92 1.33 0.83c0.11,0.06 0.21,0.11 0.31,0.13 0.1,0.02 0.21,-0.01 0.34,-0.08 0.13,-0.08 0.26,-0.23 0.4,-0.45l0.1 0.06 -1.12 1.78 -0.1 -0.06c0.12,-0.2 0.19,-0.37 0.2,-0.51 0.01,-0.14 -0.01,-0.25 -0.07,-0.34 -0.06,-0.08 -0.15,-0.16 -0.26,-0.22l-1.32 -0.83 -1.37 2.19 1.42 0.89c0.36,0.23 0.69,0.34 0.98,0.33 0.3,-0.01 0.62,-0.16 0.97,-0.44l0.07 0.09 -1.17 1.04 -4.06 -2.54 0.06 -0.1 0.12 0.08c0.42,0.26 0.73,0.22 0.95,-0.13l2.43 -3.88c0.08,-0.14 0.12,-0.28 0.11,-0.43 0,-0.15 -0.14,-0.31 -0.41,-0.48l-0.13 -0.08 0.06 -0.09 3.95 2.46zm0.13 0.15l2.52 1.17c0.49,0.23 0.89,0.52 1.18,0.87 0.3,0.34 0.31,0.81 0.04,1.39 -0.12,0.26 -0.29,0.47 -0.51,0.61 -0.22,0.14 -0.45,0.23 -0.71,0.25 -0.25,0.03 -0.51,0.01 -0.76,-0.06l0.62 2.63c0.07,0.3 0.15,0.53 0.24,0.69 0.09,0.16 0.25,0.3 0.46,0.41l-0.05 0.1 -1.51 -0.7 -0.71 -3.47 -0.47 -0.22 -0.9 1.92c-0.17,0.37 -0.04,0.66 0.41,0.86l0.13 0.07 -0.05 0.1 -2.48 -1.16 0.05 -0.1 0.13 0.06c0.26,0.12 0.47,0.15 0.61,0.1 0.13,-0.06 0.24,-0.17 0.32,-0.34l1.94 -4.16c0.07,-0.15 0.09,-0.31 0.05,-0.45 -0.04,-0.15 -0.2,-0.28 -0.47,-0.41l-0.13 -0.06 0.05 -0.1zm1.52 1.13l-1.04 2.22c0.08,0.04 0.19,0.1 0.34,0.17 0.34,0.16 0.64,0.23 0.91,0.22 0.27,-0.01 0.5,-0.08 0.68,-0.21 0.19,-0.13 0.33,-0.3 0.42,-0.51 0.09,-0.19 0.14,-0.4 0.13,-0.61 -0.01,-0.21 -0.08,-0.42 -0.22,-0.61 -0.13,-0.2 -0.34,-0.36 -0.62,-0.49 -0.19,-0.09 -0.39,-0.15 -0.6,-0.18zm9 9.59c-0.53,-0.14 -0.97,-0.39 -1.32,-0.77 -0.35,-0.38 -0.59,-0.83 -0.7,-1.35 -0.12,-0.52 -0.11,-1.06 0.02,-1.6 0.12,-0.47 0.31,-0.88 0.58,-1.21 0.26,-0.34 0.57,-0.6 0.92,-0.78 0.34,-0.18 0.71,-0.29 1.08,-0.33 0.38,-0.04 0.74,-0.01 1.09,0.07 0.52,0.13 0.97,0.39 1.32,0.76 0.35,0.37 0.59,0.81 0.71,1.34 0.11,0.52 0.1,1.06 -0.04,1.62 -0.11,0.43 -0.28,0.82 -0.52,1.15 -0.25,0.33 -0.54,0.6 -0.87,0.79 -0.34,0.2 -0.7,0.32 -1.09,0.38 -0.39,0.05 -0.78,0.03 -1.18,-0.07zm0.13 -0.33c0.24,0.06 0.48,0.06 0.73,0.01 0.24,-0.05 0.48,-0.16 0.71,-0.33 0.23,-0.18 0.43,-0.42 0.62,-0.73 0.19,-0.31 0.33,-0.68 0.44,-1.12 0.12,-0.49 0.17,-0.92 0.15,-1.3 -0.02,-0.38 -0.09,-0.69 -0.21,-0.95 -0.13,-0.25 -0.28,-0.45 -0.46,-0.6 -0.18,-0.14 -0.37,-0.24 -0.58,-0.29 -0.31,-0.08 -0.63,-0.06 -0.96,0.06 -0.33,0.12 -0.63,0.36 -0.91,0.71 -0.27,0.36 -0.48,0.82 -0.63,1.4 -0.1,0.4 -0.14,0.77 -0.14,1.12 0,0.36 0.05,0.67 0.14,0.95 0.1,0.29 0.24,0.52 0.43,0.7 0.19,0.18 0.41,0.3 0.67,0.37zm9.3 -4l-0.12 1.34 -0.11 -0.02c0,-0.4 -0.1,-0.67 -0.31,-0.83 -0.2,-0.15 -0.45,-0.25 -0.74,-0.3l-1.93 -0.34 -0.4 2.26 1.58 0.28c0.52,0.09 0.82,-0.14 0.92,-0.69l0.11 0.02 -0.36 2.04 -0.11 -0.02c0.04,-0.32 0.02,-0.54 -0.07,-0.69 -0.09,-0.15 -0.27,-0.25 -0.56,-0.3l-1.58 -0.28 -0.38 2.2c-0.04,0.18 -0.01,0.34 0.07,0.47 0.08,0.12 0.27,0.21 0.55,0.26l0.15 0.03 -0.02 0.11 -2.7 -0.48 0.02 -0.11 0.14 0.03c0.3,0.05 0.5,0.03 0.62,-0.07 0.11,-0.1 0.18,-0.24 0.21,-0.41l0.8 -4.51c0.03,-0.17 0,-0.32 -0.07,-0.45 -0.07,-0.13 -0.26,-0.22 -0.55,-0.28l-0.15 -0.02 0.02 -0.11 4.97 0.87zm9.64 -0.13l0.16 1.91 -0.11 0.02c-0.07,-0.26 -0.19,-0.51 -0.36,-0.76 -0.17,-0.24 -0.39,-0.44 -0.68,-0.6 -0.29,-0.15 -0.64,-0.22 -1.04,-0.21 -0.43,0.02 -0.81,0.14 -1.15,0.36 -0.33,0.22 -0.59,0.54 -0.77,0.95 -0.18,0.41 -0.26,0.9 -0.24,1.47 0.02,0.57 0.14,1.05 0.36,1.45 0.22,0.4 0.51,0.7 0.87,0.89 0.37,0.2 0.78,0.29 1.24,0.27 0.77,-0.03 1.45,-0.41 2.03,-1.15l0.19 0.16c-0.36,0.53 -0.74,0.9 -1.16,1.11 -0.42,0.21 -0.85,0.33 -1.3,0.34 -0.58,0.02 -1.11,-0.09 -1.61,-0.35 -0.5,-0.25 -0.9,-0.61 -1.2,-1.08 -0.3,-0.47 -0.46,-1 -0.48,-1.58 -0.01,-0.44 0.05,-0.85 0.2,-1.23 0.15,-0.39 0.37,-0.72 0.66,-1.01 0.29,-0.28 0.63,-0.51 1.02,-0.67 0.39,-0.16 0.81,-0.25 1.25,-0.26 0.32,-0.01 0.56,0 0.73,0.04 0.18,0.04 0.36,0.09 0.56,0.16 0.19,0.07 0.34,0.1 0.45,0.1 0.16,0 0.26,-0.11 0.28,-0.33l0.1 0zm3.75 5.61c-0.53,0.09 -1.04,0.04 -1.51,-0.17 -0.48,-0.2 -0.88,-0.51 -1.2,-0.95 -0.32,-0.43 -0.53,-0.92 -0.62,-1.46 -0.09,-0.49 -0.08,-0.93 0.03,-1.35 0.1,-0.41 0.28,-0.77 0.52,-1.08 0.25,-0.31 0.53,-0.55 0.86,-0.74 0.33,-0.19 0.67,-0.32 1.02,-0.38 0.53,-0.1 1.04,-0.05 1.51,0.15 0.48,0.2 0.88,0.51 1.19,0.94 0.32,0.43 0.53,0.92 0.63,1.49 0.08,0.44 0.08,0.87 -0.01,1.27 -0.09,0.4 -0.24,0.76 -0.47,1.08 -0.23,0.31 -0.51,0.57 -0.84,0.78 -0.34,0.21 -0.71,0.34 -1.11,0.42zm-0.01 -0.36c0.24,-0.04 0.46,-0.13 0.67,-0.28 0.2,-0.15 0.37,-0.35 0.51,-0.6 0.14,-0.25 0.23,-0.55 0.27,-0.91 0.05,-0.36 0.03,-0.76 -0.05,-1.21 -0.09,-0.49 -0.22,-0.91 -0.39,-1.25 -0.17,-0.33 -0.37,-0.59 -0.58,-0.77 -0.22,-0.18 -0.44,-0.3 -0.67,-0.36 -0.22,-0.06 -0.44,-0.07 -0.64,-0.04 -0.32,0.06 -0.6,0.21 -0.86,0.45 -0.25,0.25 -0.43,0.58 -0.54,1.02 -0.1,0.43 -0.1,0.94 0,1.53 0.07,0.4 0.18,0.77 0.32,1.09 0.15,0.32 0.32,0.59 0.52,0.81 0.21,0.21 0.43,0.37 0.67,0.46 0.25,0.09 0.5,0.11 0.77,0.06zm3.4 -6.39l3.36 3.66 0.56 -4.94 1.75 -0.57 0.03 0.11 -0.14 0.05c-0.23,0.07 -0.38,0.17 -0.47,0.3 -0.09,0.13 -0.1,0.29 -0.04,0.5l1.42 4.36c0.07,0.21 0.18,0.34 0.32,0.39 0.15,0.05 0.34,0.04 0.56,-0.04l0.15 -0.04 0.03 0.11 -2.6 0.84 -0.04 -0.11 0.15 -0.04c0.46,-0.15 0.63,-0.42 0.51,-0.81l-1.35 -4.14 -0.63 5.54 -0.07 0.03 -3.75 -4.14 1.35 4.16c0.12,0.38 0.42,0.5 0.88,0.35l0.15 -0.05 0.03 0.11 -2.06 0.67 -0.04 -0.11 0.14 -0.04c0.47,-0.15 0.64,-0.42 0.51,-0.81l-1.41 -4.36c-0.05,-0.15 -0.14,-0.27 -0.26,-0.36 -0.12,-0.09 -0.33,-0.09 -0.63,0.01l-0.14 0.05 -0.03 -0.11 1.76 -0.57zm7.51 -2.59l3.78 3.23 -0.05 -4.97 1.68 -0.78 0.04 0.1 -0.13 0.07c-0.22,0.1 -0.36,0.22 -0.44,0.35 -0.07,0.14 -0.06,0.31 0.03,0.51l1.94 4.15c0.09,0.2 0.21,0.31 0.37,0.35 0.15,0.03 0.33,-0.01 0.55,-0.11l0.14 -0.06 0.04 0.1 -2.48 1.16 -0.05 -0.1 0.14 -0.07c0.45,-0.2 0.58,-0.49 0.41,-0.86l-1.84 -3.95 0.05 5.58 -0.07 0.03 -4.23 -3.64 1.85 3.96c0.17,0.37 0.48,0.45 0.92,0.24l0.14 -0.07 0.05 0.11 -1.97 0.92 -0.05 -0.11 0.13 -0.06c0.45,-0.21 0.58,-0.49 0.41,-0.86l-1.93 -4.15c-0.07,-0.15 -0.17,-0.26 -0.3,-0.33 -0.13,-0.08 -0.34,-0.05 -0.63,0.08l-0.13 0.07 -0.05 -0.11 1.68 -0.78zm9.4 -5.11l0.73 1.02 -0.1 0.08c-0.27,-0.25 -0.5,-0.39 -0.69,-0.39 -0.2,0 -0.42,0.07 -0.67,0.23l-1.43 0.89 1.2 1.91 1.32 -0.83c0.11,-0.06 0.2,-0.14 0.26,-0.22 0.06,-0.08 0.09,-0.19 0.08,-0.34 -0.02,-0.15 -0.09,-0.33 -0.23,-0.55l0.1 -0.06 1.11 1.78 -0.09 0.06c-0.14,-0.2 -0.26,-0.33 -0.38,-0.4 -0.12,-0.07 -0.23,-0.1 -0.34,-0.08 -0.1,0.01 -0.2,0.06 -0.31,0.12l-1.33 0.83 1.38 2.2 1.42 -0.89c0.36,-0.23 0.61,-0.47 0.72,-0.74 0.12,-0.27 0.13,-0.62 0.03,-1.06l0.11 -0.03 0.42 1.51 -4.06 2.54 -0.06 -0.1 0.13 -0.08c0.41,-0.26 0.51,-0.56 0.29,-0.91l-2.42 -3.88c-0.09,-0.13 -0.2,-0.23 -0.34,-0.29 -0.13,-0.06 -0.34,-0.01 -0.61,0.16l-0.12 0.08 -0.06 -0.1 3.94 -2.46zm0.39 -0.25l2.25 -1.63c0.44,-0.32 0.88,-0.53 1.33,-0.62 0.45,-0.09 0.86,0.12 1.24,0.64 0.17,0.24 0.26,0.48 0.28,0.74 0.02,0.26 -0.02,0.51 -0.12,0.75 -0.1,0.23 -0.24,0.44 -0.42,0.63l2.6 0.74c0.29,0.08 0.54,0.12 0.72,0.12 0.18,0 0.38,-0.07 0.58,-0.21l0.07 0.1 -1.35 0.98 -3.38 -1.07 -0.43 0.31 1.25 1.72c0.24,0.33 0.56,0.35 0.95,0.06l0.12 -0.08 0.07 0.09 -2.22 1.61 -0.06 -0.09 0.11 -0.09c0.24,-0.17 0.36,-0.33 0.38,-0.48 0.02,-0.15 -0.03,-0.3 -0.14,-0.45l-2.69 -3.71c-0.1,-0.14 -0.23,-0.23 -0.37,-0.26 -0.15,-0.04 -0.35,0.03 -0.59,0.21l-0.11 0.08 -0.07 -0.09zm1.73 -0.78l1.44 1.98c0.07,-0.04 0.17,-0.12 0.31,-0.21 0.3,-0.22 0.51,-0.45 0.64,-0.69 0.12,-0.24 0.17,-0.47 0.14,-0.7 -0.03,-0.22 -0.11,-0.43 -0.24,-0.61 -0.13,-0.17 -0.28,-0.31 -0.47,-0.41 -0.2,-0.1 -0.41,-0.13 -0.65,-0.11 -0.23,0.03 -0.47,0.13 -0.72,0.31 -0.17,0.13 -0.33,0.27 -0.45,0.44zm6.65 -6.08l1.35 1.36 -0.07 0.09c-0.22,-0.15 -0.48,-0.27 -0.76,-0.35 -0.29,-0.08 -0.59,-0.09 -0.91,-0.02 -0.32,0.07 -0.63,0.24 -0.93,0.51 -0.32,0.29 -0.54,0.62 -0.65,1 -0.12,0.39 -0.11,0.8 0.02,1.23 0.13,0.43 0.38,0.86 0.76,1.28 0.38,0.42 0.78,0.72 1.2,0.88 0.42,0.17 0.84,0.21 1.25,0.12 0.4,-0.08 0.78,-0.28 1.12,-0.59 0.57,-0.51 0.84,-1.24 0.81,-2.18l0.25 0c0.07,0.63 0.01,1.16 -0.18,1.59 -0.18,0.44 -0.43,0.8 -0.77,1.1 -0.43,0.39 -0.91,0.65 -1.46,0.77 -0.54,0.12 -1.08,0.1 -1.61,-0.06 -0.54,-0.17 -1,-0.47 -1.39,-0.9 -0.29,-0.33 -0.5,-0.69 -0.63,-1.08 -0.13,-0.39 -0.18,-0.78 -0.14,-1.19 0.03,-0.4 0.15,-0.79 0.34,-1.17 0.2,-0.37 0.46,-0.71 0.79,-1.01 0.24,-0.21 0.43,-0.35 0.59,-0.43 0.16,-0.09 0.33,-0.16 0.53,-0.23 0.19,-0.08 0.33,-0.15 0.41,-0.22 0.12,-0.11 0.12,-0.25 0,-0.43l0.08 -0.07zm3.65 -3.49l0.94 0.83 -0.08 0.1c-0.31,-0.19 -0.57,-0.27 -0.76,-0.23 -0.19,0.04 -0.39,0.17 -0.6,0.37l-1.19 1.19 1.6 1.6 1.1 -1.11c0.09,-0.09 0.16,-0.18 0.2,-0.27 0.04,-0.09 0.04,-0.21 0,-0.35 -0.05,-0.14 -0.16,-0.31 -0.35,-0.49l0.09 -0.08 1.48 1.48 -0.08 0.09c-0.17,-0.17 -0.32,-0.27 -0.46,-0.31 -0.13,-0.04 -0.24,-0.04 -0.34,0 -0.09,0.03 -0.19,0.1 -0.28,0.19l-1.1 1.11 1.83 1.83 1.18 -1.19c0.31,-0.3 0.49,-0.6 0.54,-0.89 0.06,-0.28 -0.01,-0.63 -0.21,-1.04l0.1 -0.05 0.75 1.38 -3.38 3.38 -0.08 -0.08 0.1 -0.1c0.35,-0.35 0.38,-0.66 0.09,-0.95l-3.24 -3.24c-0.11,-0.11 -0.24,-0.18 -0.39,-0.21 -0.15,-0.02 -0.34,0.07 -0.56,0.3l-0.1 0.1 -0.09 -0.08 3.29 -3.28zm7.85 0.17l-0.09 -0.07c0.08,-0.15 0.11,-0.31 0.08,-0.48 -0.03,-0.17 -0.12,-0.39 -0.26,-0.64l-2.74 -4.97 0.05 -0.07 5.53 1.26c0.23,0.05 0.41,0.08 0.53,0.09 0.12,0.01 0.24,-0.01 0.34,-0.05 0.1,-0.05 0.21,-0.13 0.33,-0.27l0.09 0.07 -1.47 1.96 -0.09 -0.07c0.2,-0.37 0.22,-0.61 0.08,-0.72 -0.11,-0.08 -0.21,-0.13 -0.31,-0.15l-1.23 -0.29 -1.38 1.84 0.61 1.09c0.01,0.01 0.03,0.04 0.05,0.09 0.03,0.05 0.05,0.08 0.07,0.11 0.02,0.02 0.05,0.05 0.09,0.08 0.1,0.08 0.22,0.08 0.34,0.02 0.13,-0.07 0.24,-0.16 0.34,-0.29l0.09 0.07 -1.05 1.39zm-1.94 -5.06l1.2 2.15 1.2 -1.59 -2.4 -0.56z"/>
    <path class="fil0" d="M123.19 164.35l5.74 -0.88 -3.12 -1.95c-0.34,-0.21 -0.65,-0.12 -0.9,0.3l-0.08 0.12 -0.1 -0.06 1.14 -1.82 0.1 0.06 -0.08 0.13c-0.26,0.41 -0.22,0.73 0.13,0.94l4.56 2.86 -0.06 0.09 -6.44 1.03 3.49 2.18c0.18,0.12 0.35,0.15 0.5,0.09 0.14,-0.05 0.28,-0.18 0.4,-0.39l0.08 -0.12 0.1 0.06 -1.15 1.83 -0.09 -0.06 0.08 -0.13c0.26,-0.42 0.22,-0.73 -0.13,-0.95l-3.88 -2.42c-0.26,0.03 -0.48,0.1 -0.67,0.2 -0.19,0.11 -0.34,0.26 -0.47,0.47l-0.1 -0.06 0.95 -1.52zm2.75 -4.27l1.32 -2.38c0.35,-0.62 0.72,-1.1 1.12,-1.44 0.4,-0.34 0.79,-0.56 1.19,-0.65 0.39,-0.1 0.76,-0.12 1.11,-0.05 0.35,0.06 0.68,0.18 0.98,0.35 0.41,0.22 0.74,0.51 0.99,0.84 0.25,0.34 0.41,0.7 0.49,1.1 0.09,0.4 0.09,0.81 0.01,1.24 -0.08,0.42 -0.23,0.84 -0.45,1.24l-1.48 2.68 -0.1 -0.06 0.07 -0.13c0.23,-0.43 0.17,-0.74 -0.18,-0.93l-4.01 -2.22c-0.14,-0.08 -0.28,-0.11 -0.43,-0.1 -0.15,0.02 -0.3,0.16 -0.46,0.44l-0.07 0.13 -0.1 -0.06zm1.28 -1.4l4.5 2.49c0.2,-0.19 0.42,-0.51 0.66,-0.94 0.27,-0.48 0.37,-0.94 0.31,-1.38 -0.07,-0.44 -0.25,-0.84 -0.55,-1.19 -0.29,-0.35 -0.66,-0.64 -1.09,-0.88 -0.46,-0.25 -0.91,-0.37 -1.35,-0.36 -0.44,0.01 -0.85,0.13 -1.21,0.38 -0.36,0.24 -0.66,0.58 -0.9,1 -0.17,0.31 -0.29,0.6 -0.37,0.88zm4.12 -8.86l1.12 -2.51 0.1 0.05 -0.06 0.14c-0.12,0.26 -0.15,0.46 -0.09,0.6 0.06,0.14 0.18,0.24 0.35,0.32l4.18 1.86c0.17,0.08 0.32,0.09 0.47,0.04 0.14,-0.05 0.27,-0.2 0.39,-0.47l0.06 -0.13 0.1 0.04 -1.11 2.51 -0.1 -0.05 0.05 -0.13c0.2,-0.45 0.12,-0.76 -0.25,-0.92l-4.19 -1.86c-0.15,-0.07 -0.29,-0.09 -0.44,-0.06 -0.15,0.03 -0.28,0.19 -0.41,0.48l-0.06 0.13 -0.11 -0.04zm1.93 -4.25l5.43 -2.06 -3.45 -1.26c-0.39,-0.14 -0.66,0.02 -0.83,0.48l-0.05 0.14 -0.11 -0.04 0.74 -2.02 0.11 0.03 -0.06 0.15c-0.16,0.46 -0.05,0.76 0.33,0.9l5.06 1.84 -0.04 0.11 -6.09 2.34 3.87 1.41c0.2,0.07 0.37,0.07 0.5,-0.01 0.13,-0.09 0.24,-0.25 0.32,-0.47l0.05 -0.14 0.11 0.04 -0.74 2.03 -0.11 -0.04 0.06 -0.15c0.16,-0.46 0.06,-0.76 -0.33,-0.9l-4.29 -1.56c-0.25,0.09 -0.46,0.2 -0.62,0.34 -0.16,0.14 -0.28,0.33 -0.36,0.55l-0.11 -0.04 0.61 -1.67zm1.83 -4.93l0.84 -2.59c0.22,-0.68 0.49,-1.22 0.82,-1.63 0.33,-0.4 0.67,-0.69 1.04,-0.86 0.37,-0.17 0.73,-0.26 1.08,-0.26 0.36,-0.01 0.7,0.04 1.03,0.15 0.45,0.15 0.82,0.36 1.13,0.64 0.31,0.28 0.54,0.61 0.7,0.98 0.16,0.38 0.24,0.78 0.24,1.22 0.01,0.43 -0.06,0.87 -0.2,1.31l-0.95 2.9 -0.11 -0.03 0.05 -0.14c0.15,-0.47 0.03,-0.76 -0.36,-0.89l-4.35 -1.41c-0.15,-0.05 -0.3,-0.05 -0.45,-0.01 -0.14,0.04 -0.26,0.22 -0.36,0.52l-0.04 0.14 -0.11 -0.04zm0.99 -1.62l4.89 1.59c0.15,-0.23 0.31,-0.58 0.47,-1.05 0.16,-0.53 0.18,-1 0.03,-1.42 -0.15,-0.42 -0.4,-0.77 -0.76,-1.06 -0.36,-0.28 -0.77,-0.5 -1.24,-0.65 -0.5,-0.16 -0.96,-0.2 -1.4,-0.1 -0.43,0.09 -0.8,0.29 -1.11,0.6 -0.31,0.31 -0.54,0.69 -0.69,1.16 -0.11,0.33 -0.17,0.64 -0.19,0.93zm1.08 -4.52l0.71 -2.65 0.11 0.03 -0.04 0.14c-0.06,0.24 -0.07,0.42 -0.01,0.57 0.06,0.14 0.2,0.24 0.41,0.3l3.07 0.82c0.27,0.07 0.53,0.11 0.8,0.11 0.26,0.01 0.53,-0.09 0.8,-0.29 0.26,-0.2 0.46,-0.55 0.6,-1.05 0.1,-0.39 0.12,-0.73 0.04,-1 -0.08,-0.28 -0.21,-0.5 -0.39,-0.67 -0.18,-0.16 -0.35,-0.28 -0.53,-0.36 -0.17,-0.07 -0.33,-0.13 -0.49,-0.17l-2.99 -0.8c-0.15,-0.04 -0.3,-0.04 -0.44,0.01 -0.14,0.05 -0.25,0.23 -0.34,0.54l-0.04 0.14 -0.1 -0.03 0.55 -2.09 0.11 0.03 -0.03 0.14c-0.09,0.31 -0.08,0.52 0.01,0.63 0.09,0.12 0.22,0.19 0.39,0.24l3.14 0.84c0.47,0.13 0.83,0.33 1.09,0.61 0.25,0.28 0.41,0.61 0.46,0.98 0.05,0.36 0.03,0.75 -0.08,1.16 -0.1,0.37 -0.26,0.74 -0.46,1.09 -0.21,0.35 -0.51,0.62 -0.91,0.81 -0.39,0.2 -0.88,0.22 -1.46,0.06l-3.05 -0.82c-0.4,-0.1 -0.66,0.08 -0.78,0.55l-0.04 0.16 -0.11 -0.03zm2.32 -9.95l1.9 0.37 -0.02 0.11c-0.28,-0.04 -0.55,-0.02 -0.82,0.08 -0.27,0.09 -0.5,0.24 -0.68,0.45 -0.19,0.2 -0.31,0.44 -0.36,0.7 -0.04,0.19 -0.03,0.36 0.01,0.52 0.05,0.17 0.13,0.3 0.24,0.41 0.11,0.1 0.23,0.17 0.37,0.2 0.17,0.03 0.33,0.01 0.49,-0.05 0.16,-0.07 0.31,-0.17 0.45,-0.29 0.15,-0.13 0.3,-0.28 0.45,-0.46 0.15,-0.17 0.29,-0.34 0.42,-0.49 0.25,-0.28 0.48,-0.51 0.71,-0.67 0.23,-0.17 0.46,-0.29 0.71,-0.35 0.24,-0.06 0.5,-0.06 0.78,-0.01 0.33,0.06 0.58,0.21 0.77,0.44 0.19,0.23 0.31,0.5 0.36,0.82 0.06,0.31 0.05,0.62 -0.01,0.94 -0.03,0.18 -0.08,0.33 -0.13,0.44 -0.06,0.12 -0.13,0.25 -0.23,0.42 -0.09,0.16 -0.16,0.29 -0.19,0.38l-0.02 0.14c-0.01,0.17 0.07,0.28 0.24,0.35l-0.03 0.11 -2 -0.4 0.03 -0.11c0.46,0.02 0.88,-0.08 1.25,-0.3 0.38,-0.22 0.61,-0.55 0.69,-0.99 0.07,-0.33 0.04,-0.61 -0.07,-0.87 -0.11,-0.24 -0.31,-0.4 -0.59,-0.45 -0.23,-0.05 -0.46,-0.02 -0.67,0.07 -0.21,0.09 -0.4,0.22 -0.56,0.38 -0.17,0.16 -0.36,0.37 -0.59,0.64 -0.23,0.28 -0.45,0.51 -0.64,0.68 -0.19,0.18 -0.41,0.32 -0.65,0.41 -0.24,0.09 -0.5,0.11 -0.77,0.06 -0.3,-0.06 -0.55,-0.19 -0.74,-0.39 -0.2,-0.2 -0.34,-0.44 -0.41,-0.73 -0.07,-0.29 -0.08,-0.59 -0.02,-0.91 0.04,-0.2 0.09,-0.37 0.16,-0.5 0.06,-0.13 0.13,-0.26 0.22,-0.4 0.09,-0.14 0.14,-0.24 0.15,-0.31 0.01,-0.07 0,-0.13 -0.05,-0.2 -0.04,-0.06 -0.1,-0.11 -0.17,-0.14l0.02 -0.1zm0.32 -0.56l0.81 -5.13 1.36 0.14 -0.02 0.11c-0.27,-0.03 -0.51,0.03 -0.71,0.17 -0.21,0.13 -0.35,0.39 -0.41,0.77l-0.15 0.96 4.84 0.77c0.4,0.06 0.64,-0.15 0.72,-0.63l0.02 -0.15 0.11 0.02 -0.43 2.7 -0.11 -0.02 0.02 -0.15c0.04,-0.23 0.02,-0.42 -0.05,-0.56 -0.07,-0.14 -0.22,-0.22 -0.43,-0.26l-4.84 -0.76 -0.15 0.96c-0.06,0.38 -0.02,0.67 0.14,0.86 0.15,0.19 0.36,0.32 0.63,0.38l-0.02 0.11 -1.33 -0.29zm0.99 -5.14l0.34 -2.76c0.07,-0.55 0.22,-1.01 0.45,-1.4 0.24,-0.39 0.68,-0.55 1.32,-0.47 0.29,0.04 0.53,0.14 0.74,0.3 0.2,0.16 0.35,0.36 0.46,0.6 0.1,0.23 0.16,0.48 0.17,0.74l2.31 -1.4c0.27,-0.16 0.46,-0.31 0.58,-0.45 0.13,-0.13 0.21,-0.32 0.25,-0.56l0.11 0.02 -0.2 1.65 -3.08 1.74 -0.06 0.53 2.1 0.26c0.4,0.05 0.64,-0.17 0.7,-0.66l0.01 -0.14 0.12 0.01 -0.34 2.72 -0.11 -0.01 0.02 -0.15c0.03,-0.29 0,-0.49 -0.1,-0.6 -0.09,-0.12 -0.23,-0.19 -0.42,-0.21l-4.55 -0.56c-0.17,-0.02 -0.32,0.01 -0.45,0.1 -0.12,0.08 -0.2,0.27 -0.24,0.56l-0.02 0.15 -0.11 -0.01zm0.61 -1.8l2.43 0.3c0.01,-0.08 0.03,-0.21 0.05,-0.38 0.05,-0.37 0.03,-0.68 -0.07,-0.93 -0.09,-0.26 -0.22,-0.45 -0.41,-0.58 -0.18,-0.14 -0.38,-0.22 -0.61,-0.25 -0.21,-0.02 -0.42,0 -0.62,0.07 -0.2,0.08 -0.37,0.21 -0.52,0.4 -0.14,0.19 -0.23,0.43 -0.27,0.74 -0.02,0.21 -0.02,0.42 0.02,0.63zm0.08 -3.43l0.23 -2.55 0.11 0.01 -0.01 0.1c-0.03,0.34 0.05,0.51 0.23,0.53 0.08,0 0.2,-0.03 0.37,-0.11l2.33 -1.17 -2.18 -1.65c-0.07,-0.06 -0.16,-0.09 -0.26,-0.1 -0.18,-0.02 -0.28,0.12 -0.31,0.43l-0.01 0.13 -0.11 -0.01 0.17 -1.95 0.11 0.01c-0.01,0.43 0.24,0.84 0.76,1.22l2.36 1.76 1.82 0.16c0.4,0.04 0.63,-0.19 0.67,-0.67l0.01 -0.16 0.12 0.01 -0.24 2.73 -0.12 -0.01 0.02 -0.15c0.02,-0.24 -0.01,-0.42 -0.1,-0.55 -0.08,-0.14 -0.23,-0.21 -0.45,-0.23l-1.81 -0.16 -2.88 1.48c-0.22,0.12 -0.39,0.24 -0.5,0.37 -0.12,0.13 -0.18,0.31 -0.21,0.54l-0.12 -0.01z"/>
   </g>
   <g>
    <path class="fil0" d="M0.58 83.31l1.4 0.04 -0.01 0.11c-0.25,-0.01 -0.48,0.05 -0.7,0.17 -0.22,0.12 -0.35,0.37 -0.39,0.75l-0.15 1.49 2.17 0.23c-0.01,-0.24 -0.01,-0.5 0.02,-0.79 0.03,-0.26 0.09,-0.56 0.19,-0.89 0.1,-0.34 0.3,-0.65 0.6,-0.94 0.29,-0.28 0.7,-0.4 1.23,-0.35 0.31,0.04 0.59,0.14 0.83,0.3 0.25,0.17 0.44,0.43 0.57,0.79 0.13,0.36 0.17,0.83 0.11,1.41l-0.29 2.68 -0.11 -0.02 0.02 -0.14c0.05,-0.49 -0.13,-0.76 -0.54,-0.8l-4.59 -0.48c-0.16,-0.02 -0.31,0.01 -0.44,0.08 -0.13,0.07 -0.21,0.27 -0.25,0.59l-0.01 0.14 -0.12 -0.01 0.46 -4.36zm2.69 2.82l2.64 0.28c0.1,-0.22 0.15,-0.44 0.18,-0.64 0.03,-0.32 -0.01,-0.59 -0.11,-0.84 -0.1,-0.24 -0.24,-0.43 -0.44,-0.57 -0.19,-0.14 -0.4,-0.22 -0.64,-0.24 -0.26,-0.03 -0.5,0 -0.74,0.09 -0.23,0.09 -0.43,0.24 -0.59,0.46 -0.17,0.23 -0.27,0.52 -0.31,0.88 -0.02,0.17 -0.02,0.37 0.01,0.58zm-1.72 -8.87l1.25 0.15 0 0.12c-0.37,0.03 -0.63,0.11 -0.76,0.26 -0.14,0.14 -0.23,0.36 -0.28,0.65l-0.3 1.66 2.24 0.39 0.28 -1.54c0.02,-0.13 0.02,-0.24 0,-0.34 -0.02,-0.1 -0.08,-0.2 -0.2,-0.29 -0.12,-0.09 -0.31,-0.16 -0.57,-0.2l0.02 -0.12 2.09 0.37 -0.02 0.12c-0.24,-0.04 -0.42,-0.03 -0.56,0.01 -0.13,0.04 -0.23,0.1 -0.28,0.19 -0.06,0.09 -0.1,0.19 -0.12,0.32l-0.27 1.54 2.57 0.46 0.29 -1.66c0.07,-0.42 0.05,-0.77 -0.07,-1.04 -0.12,-0.27 -0.38,-0.51 -0.77,-0.73l0.05 -0.1 1.41 0.7 -0.83 4.73 -0.11 -0.02 0.02 -0.15c0.09,-0.48 -0.07,-0.76 -0.48,-0.83l-4.54 -0.8c-0.16,-0.03 -0.31,-0.01 -0.44,0.05 -0.14,0.06 -0.24,0.25 -0.29,0.57l-0.03 0.14 -0.11 -0.02 0.81 -4.59zm1.21 -4.45l-0.37 1.74 1.73 0.36 0.6 0.13c0.63,0.13 1.16,0.28 1.61,0.44 0.45,0.16 0.81,0.39 1.09,0.68 0.27,0.29 0.36,0.65 0.27,1.09 -0.05,0.23 -0.14,0.39 -0.27,0.49 -0.13,0.09 -0.27,0.13 -0.41,0.1 -0.12,-0.03 -0.21,-0.09 -0.29,-0.18 -0.08,-0.09 -0.1,-0.21 -0.07,-0.34 0.02,-0.11 0.1,-0.23 0.23,-0.35 0.14,-0.12 0.21,-0.22 0.22,-0.28 0.05,-0.2 -0.09,-0.41 -0.4,-0.62 -0.31,-0.21 -0.9,-0.41 -1.78,-0.6l-2.32 -0.49c-0.21,-0.05 -0.38,-0.01 -0.49,0.1 -0.12,0.12 -0.2,0.3 -0.26,0.56l-0.11 -0.03 1 -4.7 0.11 0.02 -0.03 0.15c-0.06,0.31 -0.04,0.52 0.06,0.63 0.1,0.11 0.23,0.18 0.39,0.21l4.51 0.96c0.41,0.09 0.66,-0.11 0.76,-0.59l0.03 -0.14 0.11 0.02 -0.57 2.68 -0.11 -0.02 0.03 -0.15c0.1,-0.48 -0.05,-0.76 -0.45,-0.84l-4.82 -1.03zm6.84 -3.83c-0.13,0.53 -0.39,0.97 -0.77,1.33 -0.38,0.35 -0.83,0.58 -1.36,0.7 -0.53,0.12 -1.07,0.11 -1.61,-0.03 -0.48,-0.12 -0.89,-0.31 -1.22,-0.58 -0.34,-0.26 -0.6,-0.57 -0.78,-0.92 -0.19,-0.35 -0.3,-0.71 -0.34,-1.09 -0.04,-0.37 -0.02,-0.74 0.07,-1.09 0.13,-0.53 0.38,-0.97 0.76,-1.32 0.37,-0.36 0.82,-0.59 1.35,-0.71 0.52,-0.12 1.07,-0.1 1.63,0.04 0.44,0.11 0.83,0.28 1.16,0.53 0.33,0.24 0.6,0.53 0.8,0.87 0.2,0.34 0.32,0.7 0.38,1.09 0.05,0.39 0.03,0.79 -0.07,1.18zm-0.33 -0.13c0.06,-0.24 0.06,-0.48 0.01,-0.73 -0.05,-0.24 -0.16,-0.48 -0.34,-0.71 -0.17,-0.23 -0.42,-0.44 -0.73,-0.62 -0.31,-0.19 -0.69,-0.34 -1.13,-0.45 -0.49,-0.12 -0.93,-0.17 -1.31,-0.15 -0.38,0.02 -0.7,0.09 -0.95,0.21 -0.26,0.13 -0.46,0.28 -0.61,0.46 -0.14,0.18 -0.24,0.38 -0.29,0.58 -0.08,0.31 -0.06,0.64 0.06,0.97 0.12,0.33 0.36,0.63 0.72,0.91 0.36,0.27 0.82,0.48 1.41,0.63 0.4,0.1 0.77,0.15 1.13,0.15 0.36,0 0.68,-0.05 0.96,-0.15 0.28,-0.1 0.51,-0.24 0.7,-0.43 0.18,-0.18 0.3,-0.41 0.37,-0.67zm-4.72 -5.06l0.71 -2.34c0.19,-0.61 0.45,-1.11 0.79,-1.52 0.35,-0.42 0.83,-0.52 1.46,-0.33 0.29,0.09 0.54,0.25 0.76,0.47 0.21,0.23 0.35,0.52 0.41,0.87 0.06,0.34 0.03,0.72 -0.09,1.14 -0.06,0.19 -0.21,0.48 -0.44,0.87l2.05 0.63c0.16,0.05 0.32,0.04 0.46,-0.01 0.14,-0.06 0.25,-0.23 0.34,-0.52l0.05 -0.14 0.11 0.03 -0.81 2.62 -0.11 -0.03 0.05 -0.14c0.07,-0.23 0.08,-0.42 0.02,-0.57 -0.05,-0.14 -0.18,-0.25 -0.4,-0.31l-4.41 -1.35c-0.21,-0.07 -0.38,-0.05 -0.51,0.04 -0.12,0.09 -0.22,0.25 -0.29,0.48l-0.04 0.14 -0.11 -0.03zm0.92 -1.66l2.38 0.73c0.14,-0.19 0.25,-0.41 0.32,-0.66 0.11,-0.35 0.09,-0.67 -0.06,-0.95 -0.15,-0.29 -0.42,-0.49 -0.8,-0.61 -0.53,-0.16 -0.93,-0.12 -1.19,0.12 -0.25,0.24 -0.43,0.52 -0.53,0.84 -0.06,0.21 -0.1,0.39 -0.12,0.53zm5.37 -5.19l-2.27 -2.32c-0.14,-0.13 -0.26,-0.22 -0.35,-0.26 -0.21,-0.07 -0.38,0.07 -0.53,0.45l-0.1 -0.04 0.66 -1.74 0.11 0.04c-0.12,0.37 0.03,0.77 0.45,1.2l2.94 3.05c0.17,0.18 0.33,0.38 0.46,0.58 0.13,0.2 0.23,0.44 0.28,0.7 0.04,0.26 0.01,0.53 -0.1,0.82 -0.1,0.27 -0.22,0.43 -0.37,0.5 -0.14,0.07 -0.28,0.08 -0.42,0.03 -0.11,-0.04 -0.19,-0.12 -0.22,-0.24 -0.03,-0.11 -0.03,-0.24 0.02,-0.37 0.06,-0.13 0.16,-0.25 0.32,-0.35 0,-0.01 0.03,-0.03 0.09,-0.06 0.05,-0.04 0.09,-0.07 0.12,-0.11 0.03,-0.03 0.06,-0.07 0.08,-0.12 0.11,-0.29 -0.01,-0.59 -0.36,-0.9l-4.43 0.42c-0.27,0.03 -0.49,0.09 -0.68,0.18 -0.18,0.09 -0.32,0.24 -0.4,0.45l-0.11 -0.04 0.89 -2.31 0.11 0.04c-0.06,0.17 -0.1,0.3 -0.1,0.41 0,0.12 0.05,0.19 0.15,0.23 0.13,0.05 0.24,0.07 0.33,0.06l3.43 -0.3zm-0.49 -9.06l1.82 0.67 -0.03 0.11c-0.27,-0.05 -0.55,-0.05 -0.85,0 -0.29,0.05 -0.57,0.17 -0.83,0.37 -0.27,0.2 -0.48,0.48 -0.63,0.85 -0.17,0.4 -0.23,0.79 -0.17,1.19 0.06,0.4 0.24,0.77 0.55,1.11 0.3,0.34 0.71,0.62 1.23,0.84 0.53,0.23 1.02,0.32 1.48,0.3 0.46,-0.03 0.85,-0.17 1.19,-0.42 0.33,-0.25 0.59,-0.59 0.77,-1.01 0.3,-0.71 0.24,-1.49 -0.2,-2.33l0.24 -0.11c0.32,0.55 0.5,1.06 0.52,1.53 0.01,0.47 -0.06,0.91 -0.24,1.32 -0.23,0.54 -0.56,0.98 -1,1.32 -0.45,0.34 -0.95,0.55 -1.5,0.63 -0.56,0.07 -1.11,-0.01 -1.65,-0.24 -0.41,-0.17 -0.75,-0.41 -1.04,-0.71 -0.28,-0.3 -0.5,-0.64 -0.63,-1.02 -0.15,-0.39 -0.21,-0.79 -0.19,-1.22 0.02,-0.42 0.12,-0.83 0.29,-1.24 0.12,-0.29 0.24,-0.51 0.35,-0.65 0.11,-0.14 0.24,-0.29 0.38,-0.43 0.15,-0.15 0.24,-0.27 0.29,-0.37 0.06,-0.16 0,-0.29 -0.19,-0.4l0.04 -0.09zm3.01 -5.91l1.75 0.82 -0.04 0.11c-0.26,-0.07 -0.55,-0.1 -0.84,-0.07 -0.3,0.02 -0.59,0.12 -0.87,0.29 -0.28,0.18 -0.51,0.44 -0.7,0.8 -0.2,0.38 -0.29,0.77 -0.27,1.17 0.03,0.4 0.17,0.78 0.45,1.15 0.27,0.37 0.65,0.68 1.16,0.95 0.5,0.27 0.98,0.41 1.44,0.42 0.46,0.01 0.87,-0.09 1.22,-0.31 0.35,-0.22 0.64,-0.53 0.85,-0.94 0.37,-0.68 0.37,-1.46 0.02,-2.34l0.24 -0.09c0.27,0.58 0.4,1.1 0.38,1.57 -0.02,0.47 -0.14,0.9 -0.35,1.3 -0.27,0.51 -0.64,0.92 -1.12,1.22 -0.47,0.31 -0.98,0.47 -1.54,0.5 -0.56,0.02 -1.1,-0.1 -1.62,-0.38 -0.39,-0.21 -0.72,-0.48 -0.98,-0.8 -0.25,-0.32 -0.44,-0.68 -0.54,-1.08 -0.11,-0.39 -0.13,-0.8 -0.08,-1.22 0.06,-0.42 0.19,-0.82 0.4,-1.22 0.15,-0.28 0.28,-0.48 0.4,-0.61 0.12,-0.13 0.26,-0.27 0.42,-0.4 0.16,-0.13 0.27,-0.25 0.32,-0.34 0.07,-0.15 0.03,-0.29 -0.15,-0.41l0.05 -0.09zm0.4 -0.85l1.38 -2.38 0.1 0.06 -0.08 0.13c-0.25,0.43 -0.19,0.74 0.16,0.94l4 2.31c0.36,0.21 0.66,0.1 0.9,-0.33l0.08 -0.13 0.1 0.06 -1.38 2.37 -0.1 -0.05 0.08 -0.13c0.12,-0.21 0.17,-0.39 0.15,-0.55 -0.02,-0.15 -0.12,-0.28 -0.32,-0.4l-3.99 -2.3c-0.2,-0.11 -0.36,-0.14 -0.51,-0.08 -0.14,0.06 -0.27,0.2 -0.39,0.41l-0.08 0.12 -0.1 -0.05zm1.84 -3.19l1.05 -1.82 0.1 0.06c-0.09,0.22 -0.14,0.44 -0.15,0.66 0,0.22 0.03,0.43 0.08,0.64 0.05,0.21 0.15,0.52 0.29,0.93 0.14,0.42 0.24,0.76 0.32,1.03l0.17 0.59 2.91 -0.65c0.5,-0.11 0.89,-0.23 1.15,-0.36 0.27,-0.12 0.48,-0.3 0.64,-0.51l0.1 0.05 -1.37 2.38 -0.1 -0.06c0.03,-0.07 0.06,-0.14 0.09,-0.2 0.02,-0.05 0.04,-0.1 0.05,-0.15 0.01,-0.05 0.01,-0.1 -0.01,-0.13 -0.01,-0.04 -0.05,-0.07 -0.1,-0.1 -0.04,-0.02 -0.08,-0.04 -0.12,-0.04 -0.05,0 -0.1,0.01 -0.15,0.02 -0.06,0.01 -0.1,0.03 -0.13,0.03l-3.2 0.67c-0.03,-0.18 -0.11,-0.53 -0.25,-1.05 -0.13,-0.52 -0.27,-1 -0.43,-1.45 -0.15,-0.45 -0.28,-0.7 -0.4,-0.77 -0.08,-0.05 -0.15,-0.04 -0.22,0.01 -0.06,0.05 -0.13,0.15 -0.22,0.28l-0.1 -0.06zm6.23 1.15l-0.09 -0.07c0.08,-0.15 0.1,-0.31 0.06,-0.48 -0.04,-0.17 -0.13,-0.39 -0.29,-0.64l-2.93 -4.89 0.04 -0.07 5.61 1.08c0.24,0.04 0.42,0.07 0.54,0.07 0.12,0.01 0.23,-0.01 0.33,-0.06 0.1,-0.05 0.21,-0.14 0.33,-0.28l0.09 0.07 -1.4 2.01 -0.1 -0.07c0.19,-0.38 0.2,-0.62 0.06,-0.72 -0.11,-0.08 -0.22,-0.12 -0.32,-0.14l-1.25 -0.25 -1.32 1.89 0.66 1.07c0.01,0.01 0.02,0.04 0.05,0.09 0.03,0.05 0.06,0.08 0.08,0.11 0.02,0.02 0.05,0.05 0.08,0.07 0.11,0.08 0.23,0.08 0.36,0.01 0.12,-0.06 0.23,-0.17 0.32,-0.3l0.09 0.07 -1 1.43zm-2.14 -5.01l1.29 2.12 1.15 -1.65 -2.44 -0.47zm4.25 -8.13l0.09 0.07 -0.09 0.11c-0.19,0.25 -0.27,0.45 -0.22,0.6 0.04,0.14 0.13,0.26 0.25,0.36l3.64 2.84c0.32,0.26 0.64,0.19 0.94,-0.2l0.09 -0.11 0.09 0.07 -1.69 2.15 -0.09 -0.07 0.1 -0.11c0.3,-0.39 0.29,-0.71 -0.04,-0.96l-1.6 -1.25 -0.13 0.16c-0.11,0.14 -0.18,0.27 -0.21,0.39 -0.03,0.13 -0.02,0.29 0.04,0.48l0.88 2.72 -0.92 1.17 -0.09 -0.07c0.12,-0.18 0.18,-0.36 0.17,-0.54 -0.01,-0.19 -0.06,-0.45 -0.17,-0.79l-0.4 -1.29c-0.09,-0.29 -0.14,-0.53 -0.15,-0.71 -0.01,-0.18 0.03,-0.35 0.11,-0.51l-0.04 -0.03c-0.19,0.23 -0.41,0.42 -0.66,0.55 -0.26,0.13 -0.52,0.19 -0.8,0.18 -0.28,-0.02 -0.55,-0.12 -0.8,-0.32 -0.3,-0.23 -0.49,-0.5 -0.56,-0.79 -0.07,-0.29 -0.06,-0.57 0.02,-0.85 0.09,-0.28 0.19,-0.52 0.32,-0.73 0.13,-0.21 0.27,-0.4 0.41,-0.58l1.51 -1.94zm1.2 3.28l-2.06 -1.6c-0.16,0.12 -0.3,0.27 -0.43,0.44 -0.27,0.35 -0.38,0.69 -0.33,1.04 0.05,0.34 0.24,0.65 0.57,0.9 0.24,0.19 0.47,0.28 0.72,0.3 0.24,0.01 0.47,-0.04 0.69,-0.17 0.22,-0.12 0.42,-0.29 0.59,-0.51 0.09,-0.12 0.18,-0.25 0.25,-0.4zm2.96 -8.08l3.75 -3.63 1.01 0.94 -0.09 0.08c-0.2,-0.18 -0.42,-0.29 -0.67,-0.3 -0.25,-0.02 -0.51,0.11 -0.79,0.38l-0.7 0.67 3.43 3.55c0.28,0.3 0.6,0.27 0.95,-0.07l0.11 -0.1 0.08 0.08 -1.97 1.91 -0.08 -0.09 0.1 -0.1c0.18,-0.17 0.28,-0.33 0.3,-0.48 0.03,-0.16 -0.04,-0.31 -0.2,-0.47l-3.42 -3.55 -0.7 0.68c-0.28,0.26 -0.42,0.52 -0.41,0.77 0.01,0.25 0.1,0.48 0.28,0.69l-0.08 0.08 -0.9 -1.04zm10.32 -1.25c-0.41,0.35 -0.87,0.57 -1.38,0.64 -0.52,0.07 -1.02,0 -1.52,-0.21 -0.5,-0.2 -0.94,-0.52 -1.31,-0.94 -0.32,-0.37 -0.54,-0.76 -0.67,-1.18 -0.12,-0.41 -0.16,-0.81 -0.11,-1.2 0.05,-0.39 0.17,-0.75 0.35,-1.09 0.19,-0.33 0.41,-0.61 0.68,-0.85 0.42,-0.36 0.88,-0.57 1.39,-0.65 0.5,-0.07 1.01,-0.01 1.51,0.2 0.49,0.2 0.93,0.52 1.31,0.96 0.3,0.34 0.52,0.71 0.65,1.1 0.14,0.39 0.19,0.78 0.16,1.18 -0.04,0.39 -0.14,0.76 -0.32,1.11 -0.18,0.35 -0.43,0.66 -0.74,0.93zm-0.19 -0.3c0.19,-0.16 0.33,-0.36 0.43,-0.59 0.1,-0.23 0.14,-0.49 0.13,-0.78 -0.01,-0.29 -0.09,-0.6 -0.24,-0.93 -0.15,-0.33 -0.37,-0.67 -0.67,-1.02 -0.34,-0.38 -0.66,-0.67 -0.99,-0.87 -0.32,-0.2 -0.62,-0.32 -0.9,-0.37 -0.28,-0.05 -0.53,-0.04 -0.76,0.03 -0.22,0.06 -0.42,0.16 -0.57,0.3 -0.25,0.21 -0.42,0.49 -0.51,0.83 -0.09,0.34 -0.06,0.73 0.07,1.16 0.13,0.43 0.4,0.87 0.79,1.32 0.27,0.32 0.55,0.57 0.84,0.77 0.3,0.21 0.59,0.35 0.87,0.43 0.29,0.09 0.56,0.1 0.82,0.06 0.26,-0.05 0.49,-0.17 0.69,-0.34zm-0.61 -6.9l2.01 -1.4c0.51,-0.36 1.03,-0.6 1.56,-0.71 0.52,-0.11 0.97,0.1 1.35,0.64 0.17,0.25 0.27,0.53 0.3,0.84 0.02,0.31 -0.04,0.62 -0.21,0.93 -0.16,0.31 -0.42,0.59 -0.78,0.85 -0.16,0.11 -0.45,0.25 -0.87,0.41l1.23 1.76c0.09,0.14 0.22,0.23 0.36,0.27 0.15,0.05 0.34,-0.02 0.59,-0.19l0.12 -0.09 0.07 0.1 -2.25 1.57 -0.06 -0.1 0.12 -0.08c0.2,-0.14 0.32,-0.28 0.37,-0.43 0.05,-0.15 0.01,-0.31 -0.12,-0.5l-2.65 -3.78c-0.13,-0.18 -0.27,-0.27 -0.42,-0.28 -0.16,0 -0.34,0.06 -0.53,0.2l-0.12 0.09 -0.07 -0.1zm1.75 -0.73l1.43 2.04c0.23,-0.07 0.44,-0.18 0.65,-0.32 0.3,-0.21 0.48,-0.48 0.54,-0.8 0.06,-0.32 -0.02,-0.64 -0.26,-0.97 -0.31,-0.45 -0.65,-0.66 -1,-0.63 -0.35,0.03 -0.66,0.14 -0.94,0.33 -0.18,0.13 -0.32,0.24 -0.42,0.35zm6.83 -4.8l0.78 1.16 -0.1 0.06c-0.41,-0.52 -0.87,-0.62 -1.38,-0.32l-1.45 0.87 2.54 4.23c0.21,0.36 0.52,0.4 0.94,0.15l0.13 -0.07 0.06 0.09 -2.35 1.41 -0.06 -0.09 0.13 -0.08c0.42,-0.25 0.53,-0.55 0.31,-0.91l-2.37 -3.95c-0.09,-0.14 -0.2,-0.24 -0.33,-0.3 -0.14,-0.06 -0.35,-0.01 -0.62,0.15l-0.13 0.08 -0.06 -0.1 3.96 -2.38zm5.99 3.9c-0.49,0.23 -1,0.29 -1.51,0.21 -0.51,-0.08 -0.98,-0.29 -1.39,-0.64 -0.42,-0.34 -0.74,-0.77 -0.97,-1.28 -0.2,-0.45 -0.3,-0.89 -0.3,-1.32 0,-0.43 0.08,-0.83 0.25,-1.19 0.16,-0.35 0.38,-0.67 0.65,-0.93 0.27,-0.27 0.57,-0.47 0.9,-0.62 0.5,-0.22 1,-0.29 1.51,-0.22 0.51,0.08 0.97,0.29 1.39,0.63 0.41,0.35 0.74,0.78 0.97,1.31 0.19,0.41 0.29,0.83 0.3,1.24 0.02,0.42 -0.05,0.81 -0.19,1.17 -0.15,0.37 -0.36,0.69 -0.63,0.97 -0.28,0.28 -0.6,0.51 -0.98,0.67zm-0.09 -0.34c0.22,-0.1 0.42,-0.24 0.58,-0.44 0.16,-0.19 0.28,-0.43 0.35,-0.7 0.08,-0.28 0.09,-0.6 0.04,-0.96 -0.04,-0.36 -0.16,-0.75 -0.34,-1.17 -0.21,-0.46 -0.44,-0.84 -0.69,-1.12 -0.25,-0.29 -0.5,-0.5 -0.76,-0.62 -0.25,-0.13 -0.49,-0.19 -0.73,-0.2 -0.23,0 -0.44,0.04 -0.63,0.13 -0.3,0.13 -0.54,0.34 -0.73,0.64 -0.18,0.3 -0.28,0.68 -0.27,1.13 0,0.45 0.12,0.95 0.37,1.5 0.16,0.37 0.36,0.7 0.58,0.98 0.22,0.28 0.45,0.5 0.7,0.66 0.25,0.17 0.51,0.26 0.77,0.29 0.26,0.03 0.51,-0.01 0.76,-0.12zm1.46 -7.01l2.43 -0.75c0.25,-0.07 0.48,-0.13 0.7,-0.18 0.23,-0.04 0.47,-0.05 0.72,-0.04 0.25,0.02 0.49,0.11 0.71,0.26 0.21,0.16 0.37,0.41 0.48,0.75 0.07,0.22 0.08,0.44 0.05,0.66 -0.04,0.22 -0.12,0.42 -0.25,0.59 -0.14,0.18 -0.31,0.31 -0.53,0.41l0.01 0.05c0.29,-0.07 0.56,-0.07 0.81,-0.01 0.25,0.07 0.46,0.18 0.64,0.35 0.17,0.17 0.3,0.37 0.37,0.62 0.08,0.27 0.09,0.55 0.02,0.84 -0.07,0.29 -0.23,0.56 -0.5,0.81 -0.26,0.25 -0.63,0.45 -1.1,0.59l-2.79 0.85 -0.03 -0.11 0.14 -0.04c0.29,-0.09 0.46,-0.2 0.52,-0.34 0.05,-0.14 0.05,-0.3 0,-0.46l-1.35 -4.42c-0.05,-0.16 -0.13,-0.29 -0.26,-0.37 -0.12,-0.09 -0.33,-0.09 -0.62,0l-0.14 0.05 -0.03 -0.11zm2.67 2.4l0.75 2.43c0.24,0 0.49,-0.04 0.73,-0.11 0.27,-0.08 0.49,-0.21 0.67,-0.37 0.19,-0.17 0.31,-0.37 0.37,-0.6 0.06,-0.22 0.06,-0.47 -0.02,-0.72 -0.08,-0.27 -0.23,-0.48 -0.43,-0.63 -0.2,-0.16 -0.44,-0.25 -0.72,-0.27 -0.27,-0.02 -0.57,0.01 -0.88,0.11 -0.17,0.05 -0.33,0.11 -0.47,0.16zm-0.79 -2.59l0.69 2.24c0.29,-0.05 0.47,-0.09 0.55,-0.12 0.32,-0.09 0.56,-0.23 0.73,-0.41 0.16,-0.19 0.26,-0.39 0.29,-0.6 0.03,-0.22 0.02,-0.44 -0.05,-0.66 -0.07,-0.22 -0.19,-0.39 -0.37,-0.51 -0.17,-0.13 -0.38,-0.2 -0.63,-0.21 -0.25,-0.02 -0.51,0.01 -0.79,0.09 -0.13,0.05 -0.27,0.1 -0.42,0.18zm8.1 3.73c-0.53,0.12 -1.04,0.09 -1.53,-0.09 -0.48,-0.17 -0.9,-0.47 -1.24,-0.89 -0.35,-0.42 -0.58,-0.9 -0.71,-1.44 -0.11,-0.49 -0.12,-0.94 -0.04,-1.36 0.08,-0.42 0.24,-0.79 0.47,-1.11 0.23,-0.32 0.5,-0.59 0.82,-0.8 0.31,-0.2 0.65,-0.35 1,-0.43 0.53,-0.12 1.04,-0.1 1.52,0.08 0.49,0.17 0.9,0.46 1.25,0.88 0.34,0.41 0.58,0.9 0.71,1.47 0.1,0.44 0.12,0.87 0.05,1.27 -0.06,0.41 -0.2,0.78 -0.41,1.11 -0.22,0.33 -0.48,0.61 -0.81,0.83 -0.32,0.23 -0.68,0.39 -1.08,0.48zm-0.03 -0.36c0.24,-0.05 0.46,-0.16 0.65,-0.32 0.2,-0.15 0.36,-0.36 0.49,-0.62 0.12,-0.26 0.19,-0.57 0.22,-0.93 0.02,-0.37 -0.02,-0.77 -0.12,-1.22 -0.11,-0.49 -0.26,-0.9 -0.46,-1.23 -0.19,-0.33 -0.4,-0.58 -0.62,-0.75 -0.23,-0.17 -0.45,-0.28 -0.68,-0.33 -0.23,-0.05 -0.45,-0.05 -0.65,0 -0.32,0.07 -0.6,0.24 -0.84,0.49 -0.24,0.26 -0.4,0.61 -0.48,1.05 -0.09,0.45 -0.06,0.96 0.08,1.55 0.09,0.4 0.22,0.76 0.38,1.07 0.16,0.32 0.35,0.58 0.56,0.79 0.22,0.21 0.45,0.35 0.7,0.43 0.25,0.08 0.51,0.09 0.77,0.02zm3.37 -2.74l2.53 -0.22 0.06 0.57 -2.54 0.23 -0.05 -0.58zm3.34 -4.04l6.54 -0.11 0 0.11 -0.15 0.01c-0.29,0 -0.48,0.06 -0.58,0.18 -0.1,0.11 -0.15,0.26 -0.15,0.44l0.08 4.62c0.01,0.18 0.06,0.33 0.16,0.44 0.11,0.11 0.3,0.17 0.6,0.16l0.15 0 0 0.11 -2.75 0.05 0 -0.11 0.15 -0.01c0.49,0 0.73,-0.21 0.72,-0.62l-0.09 -4.94 -2.82 0.05 0.09 4.94c0,0.17 0.05,0.31 0.14,0.43 0.09,0.12 0.29,0.17 0.61,0.17l0.14 -0.01 0.01 0.12 -2.74 0.05 0 -0.12 0.14 0c0.49,-0.01 0.73,-0.22 0.73,-0.63l-0.08 -4.61c-0.01,-0.16 -0.05,-0.3 -0.14,-0.43 -0.09,-0.12 -0.29,-0.18 -0.61,-0.17l-0.15 0 0 -0.12zm7.58 0.07l2.44 0.21c0.63,0.06 1.18,0.21 1.65,0.46 0.47,0.25 0.68,0.71 0.62,1.36 -0.02,0.3 -0.13,0.58 -0.31,0.84 -0.18,0.25 -0.43,0.45 -0.75,0.58 -0.33,0.13 -0.71,0.18 -1.14,0.15 -0.2,-0.02 -0.52,-0.1 -0.94,-0.25l-0.19 2.13c-0.01,0.18 0.02,0.33 0.1,0.45 0.09,0.13 0.28,0.2 0.58,0.23l0.15 0.01 -0.01 0.12 -2.73 -0.24 0.01 -0.11 0.15 0.01c0.24,0.02 0.42,-0.01 0.55,-0.09 0.14,-0.09 0.21,-0.24 0.23,-0.46l0.4 -4.6c0.02,-0.22 -0.02,-0.38 -0.14,-0.49 -0.12,-0.1 -0.29,-0.16 -0.53,-0.18l-0.15 -0.02 0.01 -0.11zm1.81 0.56l-0.21 2.48c0.21,0.09 0.45,0.15 0.7,0.18 0.37,0.03 0.68,-0.06 0.93,-0.27 0.25,-0.2 0.39,-0.51 0.42,-0.91 0.05,-0.55 -0.07,-0.92 -0.36,-1.13 -0.29,-0.2 -0.6,-0.31 -0.93,-0.34 -0.22,-0.02 -0.4,-0.02 -0.55,-0.01zm5.62 6.69c-0.53,-0.13 -0.98,-0.37 -1.33,-0.75 -0.36,-0.37 -0.61,-0.82 -0.73,-1.35 -0.13,-0.52 -0.13,-1.06 0,-1.61 0.11,-0.48 0.29,-0.89 0.55,-1.23 0.26,-0.34 0.57,-0.61 0.91,-0.8 0.35,-0.19 0.71,-0.3 1.09,-0.35 0.37,-0.05 0.74,-0.03 1.08,0.05 0.54,0.12 0.98,0.37 1.34,0.73 0.36,0.37 0.61,0.82 0.73,1.34 0.13,0.52 0.13,1.07 0,1.63 -0.1,0.45 -0.27,0.84 -0.51,1.17 -0.24,0.34 -0.53,0.61 -0.86,0.82 -0.34,0.2 -0.7,0.34 -1.09,0.4 -0.39,0.06 -0.78,0.04 -1.18,-0.05zm0.13 -0.33c0.24,0.05 0.48,0.05 0.73,-0.01 0.24,-0.05 0.48,-0.17 0.7,-0.35 0.23,-0.18 0.43,-0.42 0.61,-0.74 0.19,-0.31 0.33,-0.69 0.43,-1.14 0.11,-0.49 0.16,-0.93 0.13,-1.31 -0.03,-0.38 -0.11,-0.7 -0.23,-0.95 -0.13,-0.25 -0.29,-0.45 -0.47,-0.59 -0.19,-0.15 -0.38,-0.24 -0.58,-0.29 -0.32,-0.07 -0.64,-0.04 -0.97,0.08 -0.33,0.13 -0.63,0.37 -0.9,0.73 -0.27,0.37 -0.47,0.84 -0.61,1.43 -0.09,0.4 -0.13,0.77 -0.12,1.13 0,0.35 0.06,0.67 0.16,0.95 0.1,0.28 0.25,0.51 0.44,0.69 0.19,0.18 0.42,0.3 0.68,0.37zm7.17 -4.05l0.3 5 3.56 -3.52 1.73 0.67 -0.05 0.1 -0.14 -0.05c-0.22,-0.09 -0.41,-0.11 -0.56,-0.07 -0.15,0.05 -0.26,0.17 -0.34,0.38l-1.66 4.31c-0.07,0.21 -0.07,0.38 0.01,0.51 0.08,0.13 0.24,0.24 0.46,0.33l0.14 0.05 -0.04 0.11 -2.57 -0.99 0.05 -0.1 0.14 0.05c0.46,0.18 0.76,0.07 0.91,-0.31l1.57 -4.1 -4 3.95 -0.07 -0.03 -0.31 -5.61 -1.57 4.11c-0.15,0.38 0,0.66 0.46,0.84l0.15 0.05 -0.04 0.11 -2.04 -0.78 0.04 -0.11 0.14 0.05c0.46,0.18 0.76,0.08 0.91,-0.31l1.65 -4.31c0.06,-0.15 0.07,-0.29 0.03,-0.44 -0.03,-0.15 -0.2,-0.28 -0.49,-0.39l-0.14 -0.06 0.04 -0.1 1.73 0.66zm6.67 2.64l2.42 1.28 -0.06 0.1 -0.13 -0.07c-0.2,-0.1 -0.36,-0.15 -0.49,-0.13 -0.13,0.01 -0.22,0.05 -0.28,0.11 -0.07,0.06 -0.12,0.14 -0.17,0.22l-0.86 1.63c0.25,0.09 0.52,0.22 0.82,0.38 0.46,0.25 0.81,0.53 1.04,0.84 0.23,0.31 0.35,0.62 0.37,0.94 0.01,0.31 -0.06,0.61 -0.21,0.89 -0.21,0.38 -0.54,0.66 -0.99,0.84 -0.46,0.17 -1.11,0.04 -1.94,-0.41l-2.37 -1.26 0.05 -0.1 0.13 0.07c0.43,0.23 0.75,0.16 0.94,-0.2l2.16 -4.08c0.08,-0.14 0.11,-0.28 0.09,-0.43 -0.02,-0.15 -0.16,-0.3 -0.45,-0.45l-0.13 -0.07 0.06 -0.1zm0.26 3.46l-1.26 2.37c0.16,0.17 0.34,0.3 0.53,0.41 0.29,0.15 0.57,0.23 0.84,0.23 0.27,0 0.51,-0.07 0.71,-0.19 0.21,-0.12 0.36,-0.29 0.47,-0.5 0.13,-0.24 0.2,-0.49 0.21,-0.75 0,-0.26 -0.06,-0.5 -0.21,-0.74 -0.14,-0.23 -0.37,-0.43 -0.67,-0.59 -0.17,-0.09 -0.38,-0.17 -0.62,-0.24zm4.06 -1.16l2.42 1.28 -0.05 0.1 -0.13 -0.07c-0.2,-0.1 -0.36,-0.15 -0.49,-0.14 -0.13,0.02 -0.23,0.06 -0.29,0.12 -0.06,0.06 -0.11,0.14 -0.16,0.22l-2.17 4.08c-0.19,0.36 -0.07,0.65 0.36,0.88l0.13 0.07 -0.05 0.11 -2.42 -1.29 0.06 -0.1 0.13 0.07c0.43,0.23 0.74,0.16 0.93,-0.2l2.17 -4.08c0.08,-0.14 0.1,-0.28 0.09,-0.43 -0.02,-0.15 -0.17,-0.3 -0.45,-0.45l-0.13 -0.07 0.05 -0.1zm10.94 7.7l-0.07 0.09 -0.12 -0.09c-0.25,-0.19 -0.44,-0.27 -0.59,-0.22 -0.14,0.04 -0.27,0.13 -0.36,0.25l-2.85 3.64c-0.25,0.32 -0.18,0.64 0.2,0.94l0.12 0.09 -0.07 0.09 -7.28 -5.69 0.07 -0.09 0.12 0.09c0.38,0.3 0.7,0.29 0.96,-0.03l2.84 -3.64c0.1,-0.12 0.15,-0.26 0.16,-0.41 0.01,-0.15 -0.11,-0.33 -0.36,-0.52l-0.12 -0.09 0.07 -0.09 2.16 1.68 -0.07 0.09 -0.12 -0.09c-0.18,-0.14 -0.33,-0.21 -0.46,-0.22 -0.12,-0.01 -0.23,0.01 -0.3,0.06 -0.07,0.05 -0.14,0.12 -0.2,0.19l-3.03 3.89 1.79 1.4 3.04 -3.89c0.1,-0.12 0.15,-0.26 0.16,-0.41 0.01,-0.15 -0.11,-0.33 -0.36,-0.52l-0.12 -0.09 0.07 -0.09 2.16 1.68 -0.07 0.09 -0.12 -0.09c-0.17,-0.14 -0.33,-0.21 -0.45,-0.22 -0.13,-0.01 -0.24,0.01 -0.31,0.06 -0.07,0.05 -0.14,0.12 -0.2,0.19l-3.03 3.89 1.79 1.4 3.04 -3.88c0.1,-0.13 0.15,-0.27 0.16,-0.42 0.01,-0.15 -0.11,-0.33 -0.36,-0.52l-0.12 -0.09 0.07 -0.09 2.16 1.68z"/>
    <path class="fil0" d="M117.54 19.09l-1.28 -1.24 -1.23 1.28 -0.42 0.44c-0.45,0.46 -0.86,0.84 -1.23,1.13 -0.38,0.3 -0.76,0.49 -1.15,0.56 -0.39,0.08 -0.75,-0.04 -1.07,-0.35 -0.17,-0.16 -0.26,-0.32 -0.27,-0.48 -0.01,-0.16 0.03,-0.3 0.13,-0.4 0.08,-0.09 0.19,-0.14 0.3,-0.15 0.12,-0.02 0.23,0.02 0.33,0.11 0.08,0.09 0.14,0.22 0.17,0.39 0.04,0.18 0.08,0.29 0.13,0.34 0.14,0.14 0.39,0.13 0.73,-0.02 0.35,-0.15 0.83,-0.55 1.46,-1.19l1.64 -1.71c0.15,-0.15 0.21,-0.31 0.17,-0.47 -0.03,-0.16 -0.14,-0.33 -0.33,-0.51l0.08 -0.08 3.46 3.34 -0.08 0.08 -0.11 -0.1c-0.23,-0.22 -0.41,-0.32 -0.56,-0.29 -0.15,0.03 -0.28,0.1 -0.39,0.22l-3.21 3.32c-0.29,0.3 -0.25,0.61 0.1,0.95l0.11 0.11 -0.08 0.08 -1.97 -1.9 0.08 -0.09 0.1 0.11c0.36,0.34 0.67,0.36 0.96,0.06l3.43 -3.54zm5.27 4.92l-0.88 0.91 -0.09 -0.08c0.2,-0.31 0.29,-0.56 0.25,-0.75 -0.03,-0.2 -0.15,-0.4 -0.35,-0.62l-1.15 -1.23 -1.66 1.55 1.07 1.15c0.09,0.09 0.17,0.16 0.27,0.21 0.09,0.04 0.2,0.04 0.35,0 0.14,-0.04 0.31,-0.15 0.5,-0.33l0.08 0.09 -1.55 1.44 -0.08 -0.08c0.17,-0.17 0.28,-0.32 0.33,-0.45 0.04,-0.13 0.05,-0.25 0.01,-0.35 -0.03,-0.09 -0.09,-0.19 -0.18,-0.28l-1.07 -1.15 -1.91 1.78 1.15 1.23c0.29,0.32 0.58,0.51 0.87,0.57 0.28,0.07 0.64,0.01 1.05,-0.17l0.05 0.1 -1.41 0.7 -3.28 -3.51 0.09 -0.07 0.1 0.1c0.33,0.36 0.65,0.4 0.95,0.12l3.38 -3.15c0.11,-0.11 0.19,-0.23 0.22,-0.38 0.03,-0.15 -0.06,-0.34 -0.28,-0.57l-0.1 -0.11 0.09 -0.08 3.18 3.41zm-0.06 4.24l1.73 2.22 1.57 -1.22c0.12,-0.1 0.21,-0.22 0.25,-0.37 0.05,-0.14 -0.03,-0.34 -0.22,-0.59l-0.09 -0.11 0.09 -0.08 1.68 2.16 -0.09 0.07 -0.09 -0.11c-0.14,-0.18 -0.27,-0.29 -0.39,-0.33 -0.12,-0.04 -0.22,-0.05 -0.31,-0.01 -0.08,0.03 -0.16,0.07 -0.24,0.13l-3.63 2.85c-0.33,0.25 -0.34,0.57 -0.04,0.95l0.1 0.12 -0.09 0.07 -1.69 -2.16 0.09 -0.07 0.09 0.12c0.3,0.39 0.61,0.45 0.94,0.2l1.75 -1.37 -1.74 -2.21 -1.74 1.36c-0.14,0.11 -0.23,0.23 -0.27,0.37 -0.04,0.14 0.04,0.34 0.24,0.59l0.09 0.12 -0.09 0.07 -1.69 -2.16 0.09 -0.07 0.09 0.12c0.3,0.38 0.61,0.45 0.94,0.2l3.63 -2.85c0.13,-0.09 0.22,-0.22 0.26,-0.36 0.05,-0.14 -0.03,-0.34 -0.22,-0.59l-0.09 -0.12 0.09 -0.07 1.68 2.16 -0.09 0.07 -0.09 -0.12c-0.2,-0.25 -0.37,-0.37 -0.51,-0.37 -0.15,0.01 -0.29,0.06 -0.42,0.17l-1.57 1.22zm4.3 5.76l1.53 2.36 1.67 -1.08c0.13,-0.09 0.22,-0.2 0.28,-0.34 0.06,-0.14 0,-0.35 -0.17,-0.61l-0.08 -0.13 0.1 -0.06 1.49 2.3 -0.1 0.06 -0.08 -0.13c-0.12,-0.18 -0.24,-0.3 -0.36,-0.35 -0.12,-0.05 -0.22,-0.07 -0.31,-0.04 -0.08,0.02 -0.16,0.06 -0.25,0.11l-3.87 2.52c-0.34,0.22 -0.38,0.54 -0.11,0.95l0.08 0.12 -0.1 0.07 -1.49 -2.3 0.1 -0.06 0.08 0.12c0.26,0.41 0.57,0.5 0.91,0.28l1.86 -1.21 -1.53 -2.36 -1.86 1.21c-0.14,0.1 -0.24,0.21 -0.29,0.35 -0.06,0.14 0,0.34 0.18,0.6l0.08 0.13 -0.1 0.06 -1.49 -2.3 0.09 -0.06 0.08 0.12c0.27,0.42 0.58,0.51 0.92,0.29l3.87 -2.52c0.14,-0.09 0.23,-0.2 0.29,-0.34 0.06,-0.14 0,-0.34 -0.17,-0.61l-0.08 -0.12 0.09 -0.07 1.49 2.3 -0.09 0.06 -0.08 -0.12c-0.18,-0.27 -0.33,-0.4 -0.48,-0.41 -0.15,-0.01 -0.29,0.03 -0.44,0.13l-1.66 1.08zm-0.34 5.6l0.09 -0.06c0.11,0.13 0.24,0.22 0.42,0.26 0.17,0.04 0.4,0.04 0.7,0.01l5.67 -0.59 0.05 0.07 -3.35 4.63c-0.14,0.19 -0.24,0.34 -0.3,0.45 -0.05,0.11 -0.08,0.22 -0.08,0.33 0,0.11 0.04,0.25 0.11,0.41l-0.1 0.06 -1.22 -2.12 0.1 -0.06c0.26,0.32 0.47,0.44 0.63,0.35 0.11,-0.07 0.2,-0.14 0.26,-0.23l0.75 -1.02 -1.15 -2 -1.25 0.14c-0.02,0.01 -0.05,0.01 -0.1,0.02 -0.06,0 -0.1,0.01 -0.14,0.02 -0.03,0.01 -0.06,0.03 -0.1,0.05 -0.12,0.06 -0.17,0.17 -0.16,0.31 0.01,0.14 0.06,0.28 0.14,0.42l-0.1 0.06 -0.87 -1.51zm5.44 0.18l-2.46 0.27 1 1.73 1.46 -2zm5.45 7.54l-0.1 0.05 -0.06 -0.14c-0.14,-0.28 -0.29,-0.43 -0.44,-0.46 -0.15,-0.02 -0.29,0 -0.44,0.07l-4.15 2.03c-0.37,0.18 -0.44,0.49 -0.23,0.93l0.07 0.13 -0.11 0.05 -1.2 -2.46 0.11 -0.05 0.06 0.13c0.22,0.44 0.51,0.57 0.88,0.39l1.83 -0.89 -0.09 -0.18c-0.08,-0.16 -0.17,-0.28 -0.27,-0.37 -0.09,-0.08 -0.24,-0.14 -0.44,-0.17l-2.83 -0.4 -0.65 -1.34 0.1 -0.05c0.11,0.18 0.24,0.31 0.41,0.39 0.17,0.07 0.43,0.14 0.79,0.19l1.33 0.21c0.3,0.05 0.54,0.1 0.7,0.17 0.17,0.08 0.31,0.18 0.42,0.33l0.04 -0.02c-0.12,-0.28 -0.19,-0.56 -0.2,-0.84 -0.01,-0.29 0.05,-0.56 0.19,-0.8 0.13,-0.25 0.35,-0.44 0.63,-0.58 0.35,-0.17 0.66,-0.22 0.95,-0.15 0.29,0.06 0.55,0.19 0.76,0.39 0.21,0.2 0.39,0.4 0.52,0.61 0.13,0.21 0.24,0.41 0.34,0.61l1.08 2.22zm-3.47 -0.37l2.34 -1.15c-0.04,-0.19 -0.11,-0.39 -0.21,-0.58 -0.19,-0.39 -0.45,-0.64 -0.79,-0.74 -0.33,-0.11 -0.69,-0.07 -1.06,0.11 -0.27,0.13 -0.46,0.3 -0.58,0.51 -0.12,0.22 -0.17,0.45 -0.15,0.7 0.01,0.25 0.08,0.5 0.2,0.75 0.07,0.14 0.15,0.27 0.25,0.4zm5.88 5.98l2.35 6.1 -0.11 0.05 -0.05 -0.14c-0.11,-0.28 -0.23,-0.44 -0.37,-0.49 -0.15,-0.06 -0.3,-0.05 -0.47,0.01l-4.31 1.66c-0.18,0.06 -0.3,0.16 -0.36,0.3 -0.07,0.13 -0.06,0.34 0.05,0.61l0.05 0.14 -0.1 0.04 -0.99 -2.56 0.11 -0.05 0.05 0.14c0.18,0.46 0.45,0.61 0.84,0.47l4.6 -1.77 -1.01 -2.63 -4.6 1.76c-0.16,0.07 -0.28,0.16 -0.36,0.28 -0.08,0.12 -0.07,0.33 0.05,0.63l0.05 0.14 -0.11 0.04 -0.98 -2.56 0.11 -0.04 0.05 0.14c0.18,0.46 0.46,0.61 0.84,0.47l4.31 -1.66c0.15,-0.06 0.26,-0.15 0.35,-0.27 0.09,-0.13 0.07,-0.34 -0.04,-0.63l-0.06 -0.14 0.11 -0.04zm-3.46 8.18l0.11 -0.03c0.07,0.15 0.19,0.27 0.34,0.34 0.16,0.08 0.39,0.14 0.68,0.17l5.67 0.7 0.03 0.08 -4.31 3.76c-0.18,0.15 -0.31,0.28 -0.39,0.37 -0.08,0.09 -0.13,0.2 -0.15,0.3 -0.03,0.11 -0.02,0.25 0.01,0.43l-0.11 0.03 -0.71 -2.34 0.11 -0.03c0.18,0.37 0.36,0.53 0.53,0.48 0.13,-0.04 0.23,-0.09 0.31,-0.16l0.96 -0.83 -0.67 -2.2 -1.25 -0.15c-0.02,0 -0.05,0 -0.11,-0.01 -0.05,-0.01 -0.09,-0.01 -0.13,-0.01 -0.03,0.01 -0.07,0.01 -0.11,0.03 -0.13,0.03 -0.2,0.12 -0.22,0.27 -0.03,0.14 -0.01,0.28 0.03,0.44l-0.11 0.03 -0.51 -1.67zm5.27 1.4l-2.46 -0.29 0.58 1.91 1.88 -1.62zm2.87 6.6l-0.43 -1.72 -1.72 0.43 -0.59 0.14c-0.63,0.16 -1.17,0.26 -1.65,0.32 -0.47,0.05 -0.9,0.01 -1.27,-0.14 -0.37,-0.14 -0.61,-0.43 -0.72,-0.86 -0.05,-0.23 -0.05,-0.41 0.03,-0.56 0.07,-0.14 0.18,-0.23 0.32,-0.26 0.12,-0.03 0.23,-0.02 0.34,0.03 0.11,0.05 0.18,0.14 0.21,0.27 0.03,0.11 0.01,0.25 -0.05,0.42 -0.07,0.17 -0.09,0.29 -0.08,0.35 0.05,0.2 0.26,0.32 0.63,0.38 0.38,0.05 1,-0.03 1.87,-0.24l2.3 -0.58c0.21,-0.05 0.34,-0.15 0.4,-0.31 0.05,-0.15 0.04,-0.36 -0.02,-0.61l0.11 -0.03 1.17 4.67 -0.12 0.03 -0.03 -0.15c-0.08,-0.3 -0.19,-0.48 -0.33,-0.54 -0.14,-0.05 -0.29,-0.06 -0.44,-0.02l-4.48 1.12c-0.4,0.1 -0.54,0.38 -0.42,0.86l0.03 0.14 -0.11 0.03 -0.66 -2.66 0.11 -0.03 0.04 0.15c0.12,0.47 0.37,0.66 0.77,0.56l4.79 -1.19zm-5.16 3.05l0.11 -0.03c0.06,0.16 0.16,0.29 0.31,0.38 0.15,0.09 0.37,0.16 0.67,0.23l5.58 1.19 0.02 0.08 -4.62 3.36c-0.19,0.14 -0.33,0.26 -0.42,0.34 -0.09,0.09 -0.15,0.19 -0.18,0.29 -0.03,0.1 -0.04,0.25 -0.02,0.43l-0.11 0.02 -0.51 -2.4 0.11 -0.02c0.15,0.39 0.31,0.57 0.49,0.53 0.13,-0.03 0.24,-0.07 0.32,-0.14l1.03 -0.74 -0.48 -2.25 -1.23 -0.25c-0.01,-0.01 -0.05,-0.01 -0.1,-0.02 -0.06,-0.01 -0.1,-0.02 -0.13,-0.02 -0.04,0 -0.08,0 -0.12,0.01 -0.13,0.03 -0.21,0.11 -0.24,0.25 -0.04,0.14 -0.04,0.28 0,0.44l-0.12 0.03 -0.36 -1.71zm5.12 1.85l-2.42 -0.5 0.41 1.96 2.01 -1.46zm2.09 3.07l0.9 5.14 -1.34 0.31 -0.02 -0.12c0.27,-0.06 0.48,-0.19 0.63,-0.39 0.15,-0.19 0.2,-0.48 0.13,-0.86l-0.17 -0.96 -4.86 0.85c-0.4,0.08 -0.56,0.35 -0.48,0.83l0.03 0.15 -0.11 0.02 -0.48 -2.7 0.11 -0.02 0.03 0.15c0.04,0.24 0.12,0.41 0.23,0.51 0.12,0.11 0.28,0.14 0.5,0.11l4.86 -0.86 -0.17 -0.96c-0.07,-0.38 -0.2,-0.64 -0.41,-0.77 -0.21,-0.13 -0.46,-0.18 -0.73,-0.15l-0.02 -0.11 1.37 -0.17zm-5.2 5.88l0.12 -0.01c0.04,0.16 0.12,0.3 0.27,0.4 0.14,0.11 0.35,0.21 0.63,0.3l5.43 1.77 0.01 0.08 -4.94 2.86c-0.21,0.12 -0.36,0.22 -0.46,0.3 -0.09,0.07 -0.16,0.16 -0.2,0.26 -0.05,0.1 -0.07,0.24 -0.07,0.43l-0.11 0.01 -0.26 -2.44 0.11 -0.01c0.11,0.4 0.26,0.6 0.44,0.58 0.13,-0.02 0.24,-0.05 0.33,-0.11l1.1 -0.63 -0.24 -2.28 -1.2 -0.38c-0.01,-0.01 -0.05,-0.02 -0.1,-0.04 -0.05,-0.01 -0.09,-0.02 -0.13,-0.03 -0.03,0 -0.07,0 -0.11,0 -0.13,0.02 -0.23,0.09 -0.27,0.22 -0.05,0.14 -0.07,0.28 -0.05,0.45l-0.11 0.01 -0.19 -1.74zm4.9 2.38l-2.35 -0.76 0.21 2 2.14 -1.24z"/>
   </g>
   <circle class="fil1" cx="3.01" cy="97.39" r="3.01"/>
   <circle class="fil1" cx="144.92" cy="97.25" r="3.01"/>
   <path class="fil1" d="M99.59 79.63c0.17,-2.32 -3.35,-2.99 -4.84,-4.12 -1.74,-1.36 0.51,-3.56 -0.63,-7.46 -1.49,-5.25 -7.17,-8.24 0.89,-10.95 5.35,-1.81 7.68,-1.98 13.87,-4.46 2.51,-0.96 4.08,-1.92 5.35,-3.79 1.15,-1.75 2.04,-5.47 0.38,-7.17 -1.65,-0.22 -3.94,1.42 -5,2.09 -3.36,2.21 -10.4,5.99 -13.96,7.29 -3.48,1.24 -7.05,2.42 -9.93,4.23 -4.59,2.94 -2,3.78 -1.74,10.73 -2.38,-1.02 -5.22,-4.35 -9.47,-4.57 -2.07,-0.17 -3.98,0.56 -5.55,1.46 -1.41,0.8 -3.65,2.6 -4.37,2.83 0.12,-2.15 0.72,-4.18 0.89,-6.27 0.17,-2.48 -1.28,-3.22 -2.89,-4.12 -3.27,-1.81 -6.45,-2.82 -10.06,-4.29 -4.92,-2.04 -9.5,-4.69 -13.87,-7.51 -1.15,-0.74 -3.57,-2.09 -5.43,-1.87 -1.23,1.7 -0.77,4.35 0.08,6.27 2,4.52 10.52,6.5 15.45,7.85 2.08,0.56 4.07,1.07 5.9,1.92 5.17,2.31 1.06,5.25 -0.68,9.77 -1.87,4.91 2.42,6.72 -2.17,8.81 -1.14,0.51 -1.65,0.84 -2.5,1.46 -3.23,2.6 1.31,2.32 3.52,2.26 12.52,-0.22 26.48,0 39.21,0 1.74,0 6.49,0.46 7.55,-0.39zm3.27 -10.05c-0.85,0.22 -4.88,1.18 -5.26,1.41 -1.4,0.96 -0.77,3.61 1.74,3.56 4.11,-0.12 8.31,-6.33 3.52,-4.97zm-59.36 -0.17c-0.51,0.22 -0.56,0.39 -0.39,1.18 0.43,1.92 5.22,5.14 7.3,3.33 0.47,-0.45 2.04,-2.87 -1.65,-3.55 -1.23,-0.23 -4.5,-1.36 -5.26,-0.96zm-3.31 -6.5c-2.17,1.81 7.97,7.97 10.31,5.59 0.68,-0.62 1.19,-2.42 0.34,-3.04 -0.56,-0.4 -2.68,-0.79 -3.52,-1.02 -1.36,-0.4 -5.9,-2.54 -7.13,-1.53zm67.85 0.12c-2,-0.85 -4.84,0.73 -6.88,1.35 -2.2,0.74 -6.07,0.62 -3.9,4.01 1.23,1.86 5.17,-0.05 6.62,-0.79 1.57,-0.79 4.54,-2.54 4.16,-4.57zm2.24 -8.87c-4.45,1.36 -3.81,1.87 -10.09,3.28 -1.7,0.34 -3.65,0.84 -4.93,1.63 -1.74,1.13 -0.59,3.34 0.81,4.01 3.52,1.7 11.5,-2.26 14,-5.13 0.34,-0.34 1.06,-1.42 1.32,-1.98 0.42,-1.19 0.25,-2.26 -1.11,-1.81zm-73.36 -0.17c-1.74,0.79 1.02,3.79 1.4,4.24 2.16,2.54 11.24,7.11 14.17,4.35 4.8,-4.47 -6.11,-5.09 -10.78,-7.01 -0.8,-0.33 -4.11,-1.92 -4.79,-1.58zm33.14 91.98c0.04,2.77 0.34,24.34 0.59,25.07l4.2 0.06c1.36,0 0.98,-0.11 1.02,-1.47l0.43 -22.75c-1.06,-0.34 -5.14,-2.94 -6.41,-3.67 -1.49,-0.85 -1.74,-1.64 -3.14,-0.45 -1.02,0.84 -1.87,1.46 -2.72,2.31 -1.69,1.81 -3.01,3.33 -3.65,6.33 -0.8,4.17 0.47,8.75 3.44,11.18 3.01,2.37 4.84,2.14 4.03,0.28 -0.21,-0.45 -0.85,-0.85 -1.36,-1.19 -3.18,-2.48 -3.94,-7.73 -1.95,-10.95 0.89,-1.41 3.74,-4.24 5.52,-4.75zm8.65 -43.7l0.39 -19.65 -10.57 0 0.38 17.45c0.09,1.3 1.23,1.52 2.34,2.03l8.91 4.74c3.22,1.7 2.63,2.32 6.11,0.4 1.82,-0.96 3.99,-2.65 5.26,-3.9 2.55,-2.59 6.11,-6.66 6.32,-11.8 0.3,-9.54 -9.93,-12.59 -15.1,-8.69 -2.51,1.92 -1.32,4.74 2.46,3.67 2.67,-0.74 4.75,-0.91 6.11,1.97 2.03,4.29 -4.03,8.42 -6.92,10.39 -1.4,1.02 -4.03,2.6 -5.69,3.39zm-1.65 33.54c-0.42,-5.87 0.47,-11.74 0.38,-16.66 0,-0.9 -0.25,-0.73 -1.74,-1.58l-10.99 -6.38c-0.89,-0.56 -1.4,-0.96 -2.54,-0.34 -2.38,1.3 -5.48,4.52 -6.54,7.4 -1.36,3.67 -0.68,8.19 0.93,11.41 1.79,3.38 4.04,5.47 6.41,7.51 2.63,2.2 9.13,6.21 12.56,8.18 1.66,1.02 2.85,1.87 4.16,2.88 4.67,3.79 4.07,10.84 -0.25,13.72 -0.68,0.46 -2,0.74 -1.28,1.87 1.06,1.75 7.13,-1.3 8.02,-8.36 0.51,-4.23 -1.4,-8.02 -3.6,-10.05 -0.55,-0.51 -1.11,-1.24 -1.74,-1.69 -0.68,-0.51 -1.28,-1.02 -1.96,-1.47 -2.88,-2.09 -10.18,-6.72 -12.34,-8.59 -4.59,-3.89 -6.28,-8.52 -1.49,-13.6 0.51,-0.51 3.23,-2.94 3.86,-3.11 0.47,4.74 0.55,11.01 0.55,15.87 0,1.97 1.28,2.14 4.08,4.23 0.8,0.57 4.2,3.22 5.13,3.16 1.11,-0.05 4.8,-2.25 5.56,-2.76 1.74,-1.19 3.14,-2.54 4.24,-4.07 5.56,-7.39 2.64,-17.5 -4.71,-22.53 -5.09,-3.5 -14.21,-7.9 -20.83,-12.31 -11.37,-7.45 -5.56,-13.66 -0.98,-12.25 1.06,0.34 2.17,0.9 3.44,0.51 2.55,-0.9 1.1,-4.97 -4.62,-5.48 -4.71,-0.45 -8.49,2.15 -10.02,6.44 -2.33,6.44 2.46,12.87 7.13,16.77 4.12,3.44 15.36,9.71 20.58,12.59 6.2,3.33 8.91,9.6 3.4,15.19 -0.56,0.56 -3.95,3.28 -4.8,3.5z"/>
  </g>
 </g>
</svg>
